<svg xmlns="http://www.w3.org/2000/svg" xmlns:xlink="http://www.w3.org/1999/xlink" width="336.267" height="88.34" viewBox="0 0 336.267 88.34">
  <defs>
    <linearGradient id="linear-gradient" x1="-0.031" y1="-1.029" x2="0.673" y2="0.709" gradientUnits="objectBoundingBox">
      <stop offset="0" stop-color="#ce6a6a"/>
      <stop offset="0.481" stop-color="#ce6a6a"/>
      <stop offset="1" stop-color="#c11b36"/>
    </linearGradient>
    <linearGradient id="linear-gradient-2" x1="0.236" y1="-0.287" x2="0.527" y2="0.65" gradientUnits="objectBoundingBox">
      <stop offset="0" stop-color="#501535"/>
      <stop offset="0.502" stop-color="#c11b36"/>
      <stop offset="1" stop-color="#ce6a6a"/>
    </linearGradient>
  </defs>
  <g id="Group_13025" data-name="Group 13025" transform="translate(-755 -13470)">
    <path id="Path_3205" data-name="Path 3205" d="M163.12,21.438l-8.652,19.834-2.783,6.366L148.9,41.272,140.25,21.438h5.509l5.926,13.516L157.6,21.43Z" transform="translate(729.234 13466.062)" fill="#fff"/>
    <path id="Path_3206" data-name="Path 3206" d="M177.65,19.624V14.89h5.118v4.734Zm5.118,2.449V46.387H177.65V22.113Z" transform="translate(722.36 13467.263)" fill="#fff"/>
    <path id="Path_3207" data-name="Path 3207" d="M208.913,35.465a8.292,8.292,0,0,1,1.094,2.163,6.669,6.669,0,0,1,.351,2.449,7.191,7.191,0,0,1-.775,3.044A8.162,8.162,0,0,1,205.06,47.2a8.456,8.456,0,0,1-3.265.522,8.978,8.978,0,0,1-4.3-1.241,7.631,7.631,0,0,1-2.906-3.036l4.277-2.979a2.791,2.791,0,0,0,1.094,1.518,3.265,3.265,0,0,0,1.983.62,3.338,3.338,0,0,0,2.269-.726,2.351,2.351,0,0,0,.963-1.91,1.747,1.747,0,0,0-.049-.5v-.1a.425.425,0,0,1-.049-.18.392.392,0,0,0-.049-.171,2.84,2.84,0,0,0-1.29-1.388,1.632,1.632,0,0,0-.449-.2l.049-.049a16.984,16.984,0,0,0-1.543-.767c-.563-.253-1.135-.514-1.714-.816s-1.151-.579-1.714-.89a10.163,10.163,0,0,1-1.632-1.118v-.057l-.147-.147a7.346,7.346,0,0,1-1.632-2.31,6.2,6.2,0,0,1-.547-2.808,6.587,6.587,0,0,1,.694-2.783,7.346,7.346,0,0,1,1.714-2.236,8.162,8.162,0,0,1,2.514-1.494,7.868,7.868,0,0,1,3.077-.5,8.7,8.7,0,0,1,3.91,1.028,7.182,7.182,0,0,1,2.71,2.538l-4.171,2.881a2.579,2.579,0,0,0-.971-.947,2.971,2.971,0,0,0-1.518-.4,3.044,3.044,0,0,0-1.959.547,1.755,1.755,0,0,0-.816,1.445.889.889,0,0,0,.049.351,1.763,1.763,0,0,0,.5.939,3.1,3.1,0,0,0,1,.653c.628.359,1.347.735,2.163,1.118s1.632.816,2.449,1.265a7.582,7.582,0,0,1,1.8,1.143l.245.245a10.43,10.43,0,0,1,1.126,1.2Z" transform="translate(719.281 13466.057)" fill="#fff"/>
    <path id="Path_3208" data-name="Path 3208" d="M246.451,21.44V36.3a11.133,11.133,0,0,1-1.379,5.469,11.361,11.361,0,0,1-3.738,4.032,12.087,12.087,0,0,1-2.979,1.388,11.28,11.28,0,0,1-6.628,0,11.892,11.892,0,0,1-2.971-1.388,11.7,11.7,0,0,1-3.722-4.032,10.978,10.978,0,0,1-1.4-5.469V21.44h5.126V36.3a6.146,6.146,0,0,0,.49,2.449,6.314,6.314,0,0,0,5.795,3.828,6.072,6.072,0,0,0,2.449-.5,6.774,6.774,0,0,0,1.951-1.355,6.228,6.228,0,0,0,1.363-1.983,6.154,6.154,0,0,0,.5-2.449V21.44Z" transform="translate(713.909 13466.06)" fill="#fff"/>
    <path id="Path_3209" data-name="Path 3209" d="M273.5,21.38a12.774,12.774,0,0,1,5.134,1.045,13.647,13.647,0,0,1,4.22,2.832,13.239,13.239,0,0,1,2.857,4.228,13.011,13.011,0,0,1,1.037,5.167v12.88h-5.118V45.082A14.063,14.063,0,0,1,277.9,47.1a13.214,13.214,0,0,1-9.533-24.633A12.774,12.774,0,0,1,273.5,21.38Zm0,21.376a7.729,7.729,0,0,0,3.159-.653,8.35,8.35,0,0,0,2.563-1.747,8.448,8.448,0,0,0,1.738-2.579,7.794,7.794,0,0,0,.645-3.126,7.941,7.941,0,0,0-.645-3.175,8.235,8.235,0,0,0-4.3-4.326,7.966,7.966,0,0,0-6.317,0,8.455,8.455,0,0,0-2.555,1.747,8.26,8.26,0,0,0-1.739,2.579,7.811,7.811,0,0,0-.653,3.175,7.664,7.664,0,0,0,.653,3.126,8.162,8.162,0,0,0,1.739,2.579,8.309,8.309,0,0,0,2.555,1.747,7.729,7.729,0,0,0,3.183.653Z" transform="translate(707.169 13466.07)" fill="#fff"/>
    <path id="Path_3210" data-name="Path 3210" d="M303.36,0h5.118V43.4H303.36Z" transform="translate(699.254 13470)" fill="#fff"/>
    <path id="Path_3211" data-name="Path 3211" d="M339.31,43.882H333l-7.607-10.439-.1.1V43.735H320.17V.73H325.3V24.743l.1.1,5.248-7.207h6.317L328.52,29.166Z" transform="translate(696.165 13469.866)" fill="#fff"/>
    <path id="Path_3212" data-name="Path 3212" d="M361.435,21.32a12.831,12.831,0,0,1,5.126,1.02,13.116,13.116,0,0,1,6.978,6.978,13.369,13.369,0,0,1,0,10.243,13.059,13.059,0,0,1-6.978,6.987,13.369,13.369,0,0,1-10.243,0,13.059,13.059,0,0,1-6.987-6.987,13.369,13.369,0,0,1,0-10.243,13.059,13.059,0,0,1,6.987-6.978,12.79,12.79,0,0,1,5.118-1.02Zm0,21.123a7.942,7.942,0,0,0,5.648-2.334,8.023,8.023,0,0,0,1.714-8.774,7.979,7.979,0,0,0-13.01-2.563,8.472,8.472,0,0,0-1.738,2.563,7.917,7.917,0,0,0,0,6.219,8.43,8.43,0,0,0,1.738,2.555,7.982,7.982,0,0,0,5.648,2.334Z" transform="translate(690.992 13466.081)" fill="#fff"/>
    <path id="Path_3213" data-name="Path 3213" d="M404.565,35.459a8.553,8.553,0,0,1,1.094,2.163A6.668,6.668,0,0,1,406,40.071a7.06,7.06,0,0,1-.743,3.036,8.39,8.39,0,0,1-1.836,2.449,8.251,8.251,0,0,1-2.685,1.632,8.455,8.455,0,0,1-3.265.522,8.978,8.978,0,0,1-4.3-1.241,7.631,7.631,0,0,1-2.906-3.036l4.277-2.979a2.792,2.792,0,0,0,1.094,1.518,3.681,3.681,0,0,0,4.244-.106,2.334,2.334,0,0,0,.971-1.91,1.747,1.747,0,0,0-.049-.5v-.1a.424.424,0,0,1-.049-.18.392.392,0,0,0-.049-.171,2.824,2.824,0,0,0-1.3-1.388A1.633,1.633,0,0,0,399,37.4l.049-.049a16.985,16.985,0,0,0-1.543-.767c-.563-.253-1.135-.514-1.714-.816s-1.151-.579-1.714-.89a10.161,10.161,0,0,1-1.632-1.118V33.7l-.147-.147a7.1,7.1,0,0,1-1.632-2.31,6.089,6.089,0,0,1-.547-2.808,6.587,6.587,0,0,1,.694-2.783,7.347,7.347,0,0,1,1.714-2.236,8.163,8.163,0,0,1,2.514-1.494,7.844,7.844,0,0,1,3.077-.5,8.7,8.7,0,0,1,3.852,1.045,7.248,7.248,0,0,1,2.743,2.547L400.541,27.9a2.579,2.579,0,0,0-.971-.947,2.971,2.971,0,0,0-1.518-.4,3.069,3.069,0,0,0-1.967.547,1.747,1.747,0,0,0-.816,1.445.89.89,0,0,0,.049.351,1.706,1.706,0,0,0,.5.939,3.019,3.019,0,0,0,1,.653c.628.359,1.347.735,2.163,1.118s1.632.816,2.449,1.265a7.542,7.542,0,0,1,1.787,1.143l.253.245a11.228,11.228,0,0,1,1.1,1.2Z" transform="translate(683.309 13466.063)" fill="#fff"/>
    <path id="Path_3214" data-name="Path 3214" d="M92.266,59.461c-.049-.237-.1-.473-.155-.7a.408.408,0,0,0-.588-.269q-3.591,1.894-7.533,3.95a.408.408,0,0,0-.22.416,21.874,21.874,0,0,1-36.949,18.4.408.408,0,0,0-.457-.073L44.617,82c-2.04.971-4.032,1.91-5.95,2.808a.4.4,0,0,0-.139.628A30.811,30.811,0,0,0,92.266,59.444Z" transform="translate(747.949 13459.258)" fill="url(#linear-gradient)"/>
    <path id="Path_3215" data-name="Path 3215" d="M107.49,32.514c-.416-.816-10.431,3.265-25.261,10.072a2.449,2.449,0,0,1-3.077-.816A30.926,30.926,0,0,0,58.127,28.711a30.493,30.493,0,0,0-6.807-.2L43.974,39.656a21.867,21.867,0,0,1,26.216,5.1,2.449,2.449,0,0,1-.816,3.877c-5.305,2.538-10.962,5.3-16.805,8.2s-11.427,5.713-16.675,8.431a2.449,2.449,0,0,1-3.575-1.69h0A21.874,21.874,0,0,1,43.158,40.072L30.1,39.452a30.689,30.689,0,0,0-7.158,21.074,31.016,31.016,0,0,0,1.543,8.358,2.522,2.522,0,0,1-1.183,3C8.894,79.552-.4,85.086,0,85.918s10.521-3.265,25.457-10.162l1.771-.816q3.877-1.8,8.162-3.828c6.089-2.889,12.692-6.1,19.589-9.509s13.4-6.734,19.393-9.794c2.775-1.445,5.436-2.84,7.958-4.179h0L83,47.32C98.071,39.2,107.915,33.371,107.49,32.514ZM48.414,28.891l-.759.147a30.6,30.6,0,0,0-15.573,8.276L42.5,37.82Z" transform="translate(755.016 13464.779)" fill="url(#linear-gradient-2)"/>
    <path id="Path_3216" data-name="Path 3216" d="M28.338,60.273l-.6-.653-2.024.914.71,7.011,1.494-.677,4.6-2.073Z" transform="translate(750.287 13459.042)" fill="#474747" fill-rule="evenodd"/>
    <path id="Path_3217" data-name="Path 3217" d="M61,25.338l-2.816-6.244-3.991,6.04L46.844,36.284l-.294.449h-.506l-13.059-.62-8.9-.449L28,44.339l1.69,3.746c1.363,1.126,3.477,1.575,5.917,1.583A38.308,38.308,0,0,0,49.693,46.4c5.4-2.449,11.623-6.938,13.761-11.329a7.346,7.346,0,0,0,.751-2.547ZM32.25,10.3,15.6,33.027,22.717,48.8l2.024-.914L18.1,33.141l16.854.816,10.423.506,5.909-8.978h0L61.454,10.1Z" transform="translate(752.146 13468.144)" fill="#fff" fill-rule="evenodd"/>
    <text id="ACADEMY" transform="translate(869.268 13550.34)" fill="#fff" font-size="31" font-family="SegoeUI, Segoe UI" letter-spacing="0.432em"><tspan x="0" y="0">ACADEMY</tspan></text>
  </g>
</svg>
