<svg xmlns="http://www.w3.org/2000/svg" xmlns:xlink="http://www.w3.org/1999/xlink" width="412" height="109" viewBox="0 0 412 109">
  <defs>
    <linearGradient id="linear-gradient" x1="-0.031" y1="-1.029" x2="0.673" y2="0.709" gradientUnits="objectBoundingBox">
      <stop offset="0" stop-color="#eda4ff"/>
      <stop offset="0.481" stop-color="#888ceb"/>
      <stop offset="1" stop-color="#c173e7"/>
    </linearGradient>
    <linearGradient id="linear-gradient-2" x1="0.236" y1="-0.287" x2="0.527" y2="0.65" gradientUnits="objectBoundingBox">
      <stop offset="0" stop-color="#eda4ff"/>
      <stop offset="0.502" stop-color="#888ceb"/>
      <stop offset="1" stop-color="#c173e7"/>
    </linearGradient>
  </defs>
  <g id="Group_13025" data-name="Group 13025" transform="translate(-755 -13470)">
    <path id="Path_3205" data-name="Path 3205" d="M168.27,21.44l-10.6,24.3-3.41,7.8-3.41-7.8-10.6-24.3H147L154.26,38l7.25-16.57Z" transform="translate(755.016 13470)" fill="#474747"/>
    <path id="Path_3206" data-name="Path 3206" d="M177.65,20.69v-5.8h6.27v5.8Zm6.27,3V53.48h-6.27V23.74Z" transform="translate(755.016 13470)" fill="#474747"/>
    <path id="Path_3207" data-name="Path 3207" d="M212.18,38.62a10.16,10.16,0,0,1,1.34,2.65,8.17,8.17,0,0,1,.43,3A8.81,8.81,0,0,1,213,48a10,10,0,0,1-5.54,5,10.36,10.36,0,0,1-4,.64,11,11,0,0,1-5.27-1.52,9.35,9.35,0,0,1-3.56-3.72l5.24-3.65a3.42,3.42,0,0,0,1.34,1.86,4,4,0,0,0,2.43.76,4.09,4.09,0,0,0,2.78-.89,2.88,2.88,0,0,0,1.18-2.34,2.14,2.14,0,0,0-.06-.61v-.12a.52.52,0,0,1-.06-.22.48.48,0,0,0-.06-.21,3.48,3.48,0,0,0-1.58-1.7,2,2,0,0,0-.55-.25l.06-.06a20.809,20.809,0,0,0-1.89-.94c-.69-.31-1.39-.63-2.1-1s-1.41-.71-2.1-1.09a12.451,12.451,0,0,1-2-1.37V36.5l-.18-.18a9,9,0,0,1-2-2.83,7.59,7.59,0,0,1-.67-3.44,8.07,8.07,0,0,1,.85-3.41,9,9,0,0,1,2.1-2.74,10,10,0,0,1,3.08-1.83,9.64,9.64,0,0,1,3.77-.61A10.66,10.66,0,0,1,209,22.72a8.8,8.8,0,0,1,3.32,3.11l-5.11,3.53a3.16,3.16,0,0,0-1.19-1.16,3.64,3.64,0,0,0-1.86-.49,3.73,3.73,0,0,0-2.4.67,2.15,2.15,0,0,0-1,1.77,1.09,1.09,0,0,0,.06.43,2.16,2.16,0,0,0,.61,1.15,3.8,3.8,0,0,0,1.22.8c.77.44,1.65.9,2.65,1.37s2,1,3,1.55a9.29,9.29,0,0,1,2.2,1.4l.3.3a12.779,12.779,0,0,1,1.38,1.47Z" transform="translate(755.016 13470)" fill="#474747"/>
    <path id="Path_3208" data-name="Path 3208" d="M251.59,21.44V39.65a13.64,13.64,0,0,1-1.69,6.7,13.92,13.92,0,0,1-4.58,4.94,14.81,14.81,0,0,1-3.65,1.7,13.82,13.82,0,0,1-8.12,0,14.57,14.57,0,0,1-3.64-1.7,14.33,14.33,0,0,1-4.56-4.94,13.45,13.45,0,0,1-1.72-6.7V21.44h6.28V39.65a7.53,7.53,0,0,0,.6,3,7.736,7.736,0,0,0,7.1,4.69,7.44,7.44,0,0,0,3-.61A8.3,8.3,0,0,0,243,45.07a7.63,7.63,0,0,0,1.67-2.43,7.54,7.54,0,0,0,.61-3V21.44Z" transform="translate(755.016 13470)" fill="#474747"/>
    <path id="Path_3209" data-name="Path 3209" d="M276.47,21.38a15.65,15.65,0,0,1,6.29,1.28,16.721,16.721,0,0,1,5.17,3.47,16.22,16.22,0,0,1,3.5,5.18,15.94,15.94,0,0,1,1.27,6.33V53.42h-6.27v-3a17.23,17.23,0,0,1-4.57,2.47,16.189,16.189,0,0,1-11.68-30.18,15.65,15.65,0,0,1,6.29-1.33Zm0,26.19a9.47,9.47,0,0,0,3.87-.8,10.23,10.23,0,0,0,3.14-2.14,10.35,10.35,0,0,0,2.13-3.16,9.549,9.549,0,0,0,.79-3.83,9.729,9.729,0,0,0-.79-3.89,10.09,10.09,0,0,0-5.27-5.3,9.76,9.76,0,0,0-7.74,0,10.36,10.36,0,0,0-3.13,2.14,10.12,10.12,0,0,0-2.13,3.16,9.57,9.57,0,0,0-.8,3.89,9.39,9.39,0,0,0,.8,3.83,10,10,0,0,0,2.13,3.16,10.18,10.18,0,0,0,3.13,2.14,9.47,9.47,0,0,0,3.9.8Z" transform="translate(755.016 13470)" fill="#474747"/>
    <path id="Path_3210" data-name="Path 3210" d="M303.36,0h6.27V53.17h-6.27Z" transform="translate(755.016 13470)" fill="#474747"/>
    <path id="Path_3211" data-name="Path 3211" d="M343.62,53.6h-7.73l-9.32-12.79-.12.12V53.42h-6.28V.73h6.28V30.15l.12.12L333,21.44h7.74L330.4,35.57Z" transform="translate(755.016 13470)" fill="#474747"/>
    <path id="Path_3212" data-name="Path 3212" d="M364.39,21.32a15.72,15.72,0,0,1,6.28,1.25,16.07,16.07,0,0,1,8.55,8.55,16.38,16.38,0,0,1,0,12.55,16,16,0,0,1-8.55,8.56,16.38,16.38,0,0,1-12.55,0,16,16,0,0,1-8.56-8.56,16.38,16.38,0,0,1,0-12.55,16,16,0,0,1,8.56-8.55,15.67,15.67,0,0,1,6.27-1.25Zm0,25.88a9.73,9.73,0,0,0,6.92-2.86,9.83,9.83,0,0,0,2.1-10.75,9.776,9.776,0,0,0-15.94-3.14,10.38,10.38,0,0,0-2.13,3.14,9.7,9.7,0,0,0,0,7.62,10.329,10.329,0,0,0,2.13,3.13,9.78,9.78,0,0,0,6.92,2.86Z" transform="translate(755.016 13470)" fill="#474747"/>
    <path id="Path_3213" data-name="Path 3213" d="M407.82,38.62a10.479,10.479,0,0,1,1.34,2.65,8.17,8.17,0,0,1,.42,3,8.65,8.65,0,0,1-.91,3.72,10.28,10.28,0,0,1-2.25,3,10.109,10.109,0,0,1-3.29,2,10.36,10.36,0,0,1-4,.64,11,11,0,0,1-5.27-1.52,9.35,9.35,0,0,1-3.56-3.72l5.24-3.65a3.42,3.42,0,0,0,1.34,1.86,4.51,4.51,0,0,0,5.2-.13,2.86,2.86,0,0,0,1.19-2.34,2.14,2.14,0,0,0-.06-.61V43.4a.52.52,0,0,1-.06-.22.48.48,0,0,0-.06-.21,3.46,3.46,0,0,0-1.59-1.7A2,2,0,0,0,401,41l.06-.06a20.809,20.809,0,0,0-1.89-.94c-.69-.31-1.39-.63-2.1-1s-1.41-.71-2.1-1.09a12.451,12.451,0,0,1-2-1.37v-.07l-.18-.18a8.7,8.7,0,0,1-2-2.83,7.46,7.46,0,0,1-.67-3.44,8.07,8.07,0,0,1,.85-3.41,9,9,0,0,1,2.1-2.74,10,10,0,0,1,3.08-1.83,9.61,9.61,0,0,1,3.77-.61,10.66,10.66,0,0,1,4.72,1.28A8.88,8.88,0,0,1,408,25.83l-5.11,3.53a3.16,3.16,0,0,0-1.19-1.16,3.64,3.64,0,0,0-1.86-.49,3.76,3.76,0,0,0-2.41.67,2.14,2.14,0,0,0-1,1.77,1.09,1.09,0,0,0,.06.43,2.09,2.09,0,0,0,.61,1.15,3.7,3.7,0,0,0,1.22.8c.77.44,1.65.9,2.65,1.37s2,1,3,1.55a9.241,9.241,0,0,1,2.19,1.4l.31.3a13.76,13.76,0,0,1,1.35,1.47Z" transform="translate(755.016 13470)" fill="#474747"/>
    <path id="Path_3214" data-name="Path 3214" d="M104.39,59.69c-.06-.29-.12-.58-.19-.86a.5.5,0,0,0-.72-.33q-4.4,2.32-9.23,4.84a.5.5,0,0,0-.27.51A26.8,26.8,0,0,1,48.71,86.39a.5.5,0,0,0-.56-.09l-2.14,1c-2.5,1.19-4.94,2.34-7.29,3.44a.49.49,0,0,0-.17.77,37.75,37.75,0,0,0,65.84-31.84Z" transform="translate(755.016 13470)" fill="url(#linear-gradient)"/>
    <path id="Path_3215" data-name="Path 3215" d="M131.7,33.44c-.51-1-12.78,4-30.95,12.34a3,3,0,0,1-3.77-1,37.89,37.89,0,0,0-25.76-16,37.36,37.36,0,0,0-8.34-.25l-9,13.66A26.792,26.792,0,0,1,86,48.44a3,3,0,0,1-1,4.75c-6.5,3.11-13.43,6.49-20.59,10.05s-14,7-20.43,10.33A3,3,0,0,1,39.6,71.5h0A26.8,26.8,0,0,1,52.88,42.7l-16-.76a37.6,37.6,0,0,0-8.77,25.82A38,38,0,0,0,30,78a3.09,3.09,0,0,1-1.45,3.68C10.9,91.07-.49,97.85,0,98.87s12.89-4,31.19-12.45l2.17-1q4.75-2.2,10-4.69c7.46-3.54,15.55-7.47,24-11.65s16.42-8.25,23.76-12c3.4-1.77,6.66-3.48,9.75-5.12h0l.83-.38C120.16,41.63,132.22,34.49,131.7,33.44ZM59.32,29l-.93.18A37.49,37.49,0,0,0,39.31,39.32l12.77.62Z" transform="translate(755.016 13470)" fill="url(#linear-gradient-2)"/>
    <path id="Path_3216" data-name="Path 3216" d="M28.93,60.42l-.74-.8-2.48,1.12.87,8.59,1.83-.83,5.64-2.54Z" transform="translate(755.016 13470)" fill="#888ceb" fill-rule="evenodd"/>
    <path id="Path_3217" data-name="Path 3217" d="M71.22,28.77l-3.45-7.65-4.89,7.4-9,13.66-.36.55H52.9l-16-.76L26,41.42l4.79,10.63,2.07,4.59c1.67,1.38,4.26,1.93,7.25,1.94a46.935,46.935,0,0,0,17.26-4c6.61-3,14.24-8.5,16.86-13.88a9,9,0,0,0,.92-3.12ZM36,10.35,15.6,38.19l8.72,19.33L26.8,56.4,18.66,38.33l20.65,1,12.77.62,7.24-11h0L71.78,10.1Z" transform="translate(755.016 13470)" fill="#888ceb" fill-rule="evenodd"/>
    <text id="ACADEMY" transform="translate(895 13569)" fill="#474747" font-size="38" font-family="SegoeUI, Segoe UI" letter-spacing="0.432em"><tspan x="0" y="0">ACADEMY</tspan></text>
  </g>
</svg>
