<svg xmlns="http://www.w3.org/2000/svg" xmlns:xlink="http://www.w3.org/1999/xlink" width="144.877" height="24.577" viewBox="0 0 144.877 24.577">
  <defs>
    <linearGradient id="linear-gradient" y1="0.5" x2="1" y2="0.5" gradientUnits="objectBoundingBox">
      <stop offset="0" stop-color="#6f2eda"/>
      <stop offset="1" stop-color="#458bf1"/>
    </linearGradient>
  </defs>
  <g id="Layer_2" data-name="Layer 2" transform="translate(0)">
    <g id="Layer_1" data-name="Layer 1" transform="translate(0)">
      <path id="Path_10488" data-name="Path 10488" d="M271.518,27.588a.97.97,0,0,1-.97.97h-3.643c-2.168,0-2.927-1.756-3.6-3.305-.149-.344-.291-.672-.446-.97a.248.248,0,0,0-.251-.146.257.257,0,0,0-.239.173,17.992,17.992,0,0,0-.524,1.908c-.527,2.237-1.124,4.77-3.256,4.77-1.976,0-2.373-3.528-2.788-7.264a23.175,23.175,0,0,0-1.171-6.068.242.242,0,0,0-.251-.158.269.269,0,0,0-.245.17c-.7,1.759-.948,4.876-1.186,7.887-.384,4.9-.75,9.519-2.94,9.519s-2.813-3.64-3.445-7.162a26.559,26.559,0,0,0-1-4.312.26.26,0,0,0-.235-.161h0a.245.245,0,0,0-.232.155,16.655,16.655,0,0,0-.846,3.513c-.474,2.7-.966,5.5-2.921,5.5-1.645,0-2.19-1.648-2.673-3.1-.44-1.329-.855-2.58-1.976-2.58H233.06a.97.97,0,0,1,0-1.939h3.609c2.518,0,3.243,2.168,3.823,3.925a11.6,11.6,0,0,0,.5,1.32.257.257,0,0,0,.263.164.285.285,0,0,0,.257-.173,16.668,16.668,0,0,0,.805-3.358c.48-2.7,1.019-5.765,3.1-5.765,1.921,0,2.478,3.175,3.079,6.536a24.633,24.633,0,0,0,1.143,4.764.245.245,0,0,0,.251.158.248.248,0,0,0,.226-.186,40.984,40.984,0,0,0,.9-6.837c.415-5.077.846-10.328,3.327-10.328,2.429,0,2.921,4.225,3.407,8.314a28.968,28.968,0,0,0,.843,5.006.279.279,0,0,0,.251.2.31.31,0,0,0,.282-.152,11.864,11.864,0,0,0,.827-2.664c.465-1.992.945-4.052,2.614-4.052,1.431,0,2.017,1.394,2.537,2.624.462,1.1.9,2.134,1.831,2.134h3.643A.973.973,0,0,1,271.518,27.588Z" transform="translate(-160.195 -10.498)" fill="url(#linear-gradient)"/>
      <path id="Path_10489" data-name="Path 10489" d="M6.908,29.65a6.657,6.657,0,0,1,2.7.548,7.168,7.168,0,0,1,2.209,1.481A6.933,6.933,0,0,1,13.3,33.89,6.84,6.84,0,0,1,13.85,36.6v6.741h-2.7V42.074A7.435,7.435,0,0,1,9.2,43.134a6.694,6.694,0,0,1-2.292.384,6.682,6.682,0,0,1-2.692-.545A6.954,6.954,0,0,1,.545,39.29,6.722,6.722,0,0,1,0,36.6,6.84,6.84,0,0,1,.545,33.89,6.9,6.9,0,0,1,4.219,30.2a6.679,6.679,0,0,1,2.689-.548Zm0,11.189A3.993,3.993,0,0,0,8.562,40.5a4.337,4.337,0,0,0,2.249-2.264,4.027,4.027,0,0,0,.341-1.636,4.108,4.108,0,0,0-.341-1.663A4.337,4.337,0,0,0,8.562,32.67a4.179,4.179,0,0,0-3.3,0,4.337,4.337,0,0,0-2.252,2.264A4.157,4.157,0,0,0,2.676,36.6a4.067,4.067,0,0,0,.338,1.636,4.383,4.383,0,0,0,.911,1.347,4.337,4.337,0,0,0,1.341.929,3.99,3.99,0,0,0,1.654.328Z" transform="translate(0 -20.465)" fill="#fff"/>
      <path id="Path_10490" data-name="Path 10490" d="M69.957,29.74v7.778a5.811,5.811,0,0,1-.722,2.862,5.951,5.951,0,0,1-1.942,2.11,6.536,6.536,0,0,1-1.549.728,5.932,5.932,0,0,1-3.476,0,6.536,6.536,0,0,1-1.549-.728,6.112,6.112,0,0,1-1.942-2.11A5.694,5.694,0,0,1,58,37.518V29.74h2.68v7.778a3.166,3.166,0,0,0,.273,1.286,3.3,3.3,0,0,0,3.033,2,3.138,3.138,0,0,0,1.27-.26,3.528,3.528,0,0,0,1.05-.7,3.209,3.209,0,0,0,.712-1.041,3.166,3.166,0,0,0,.276-1.286V29.74Z" transform="translate(-40.033 -20.527)" fill="#fff"/>
      <path id="Path_10491" data-name="Path 10491" d="M123.528,16.055a6.831,6.831,0,0,1-4.191,6.335,7,7,0,0,1-5.359,0,6.815,6.815,0,0,1-3.655-3.655,7,7,0,0,1,0-5.359,6.831,6.831,0,0,1,6.347-4.191,6.648,6.648,0,0,1,2.252.378,7.181,7.181,0,0,1,1.939,1.053V0h2.68V16.055Zm-6.858,4.188a4.1,4.1,0,0,0,1.623-.31,4.185,4.185,0,0,0,2.556-3.863v-.028a4.027,4.027,0,0,0-.325-1.611,4.18,4.18,0,0,0-6.809-1.329,4.337,4.337,0,0,0-.908,1.341,4.086,4.086,0,0,0,0,3.253,4.315,4.315,0,0,0,.908,1.338,4.163,4.163,0,0,0,2.955,1.208Z" transform="translate(-75.78)" fill="#fff"/>
      <path id="Path_10492" data-name="Path 10492" d="M168.75,19.05V16.38h2.683v2.67Zm2.683,1.406V34.2H168.75V20.466Z" transform="translate(-116.476 -11.306)" fill="#fff"/>
      <path id="Path_10493" data-name="Path 10493" d="M198.808,29.57a6.728,6.728,0,0,1,2.68.533,6.878,6.878,0,0,1,0,12.673,7,7,0,0,1-5.359,0,6.855,6.855,0,0,1-3.655-3.655,7.013,7.013,0,0,1,0-5.362,6.855,6.855,0,0,1,3.655-3.655,6.741,6.741,0,0,1,2.68-.533Zm0,11.059a4.1,4.1,0,0,0,1.623-.31,4.157,4.157,0,0,0,2.23-2.24,4.228,4.228,0,0,0,0-3.253,4.177,4.177,0,0,0-6.809-1.338,4.315,4.315,0,0,0-.908,1.338,4.086,4.086,0,0,0,0,3.253,4.294,4.294,0,0,0,.908,1.341,4.172,4.172,0,0,0,1.335.9,4.1,4.1,0,0,0,1.632.31Z" transform="translate(-132.483 -20.41)" fill="#fff"/>
      <path id="Path_10494" data-name="Path 10494" d="M352.671,23.765h-3.308L345.382,18.3l-.053.053v5.334h-2.68V1.18h2.68V13.747l.053.053,2.732-3.773h3.318l-4.4,6.034Z" transform="translate(-236.507 -0.814)" fill="#fff"/>
      <path id="Path_10495" data-name="Path 10495" d="M390.044,29.569a6.741,6.741,0,0,1,2.676.533,6.883,6.883,0,0,1,3.655,3.655,7.013,7.013,0,0,1,0,5.362,6.883,6.883,0,0,1-3.655,3.655,7.013,7.013,0,0,1-5.362,0A6.883,6.883,0,0,1,383.7,39.12a7.013,7.013,0,0,1,0-5.362,6.883,6.883,0,0,1,3.655-3.655A6.753,6.753,0,0,1,390.044,29.569Zm0,11.059a4.1,4.1,0,0,0,1.62-.31,4.157,4.157,0,0,0,2.23-2.24,4.228,4.228,0,0,0,0-3.253,4.177,4.177,0,0,0-6.809-1.338,4.367,4.367,0,0,0-.908,1.338,4.086,4.086,0,0,0,0,3.253,4.337,4.337,0,0,0,.908,1.341,4.207,4.207,0,0,0,1.335.9,4.117,4.117,0,0,0,1.636.31Z" transform="translate(-264.476 -20.41)" fill="#fff"/>
      <path id="Path_10496" data-name="Path 10496" d="M448.43,37.07A4.427,4.427,0,0,1,449,38.2a3.494,3.494,0,0,1,.183,1.289,3.717,3.717,0,0,1-.39,1.586,4.238,4.238,0,0,1-2.367,2.122,4.51,4.51,0,0,1-1.691.273,4.69,4.69,0,0,1-2.252-.651,4.005,4.005,0,0,1-1.521-1.589l2.237-1.549a1.468,1.468,0,0,0,.573.8,1.707,1.707,0,0,0,1.041.31A1.735,1.735,0,0,0,446,40.412a1.239,1.239,0,0,0,.5-.994,1.007,1.007,0,0,0-.025-.26v-.05a.207.207,0,0,1-.028-.093.233.233,0,0,0-.025-.09,1.5,1.5,0,0,0-.669-.747.87.87,0,0,0-.232-.105l.025-.025a8.464,8.464,0,0,0-.805-.406c-.294-.13-.595-.266-.9-.415s-.6-.31-.9-.468a4.93,4.93,0,0,1-.833-.585v-.028l-.077-.077a3.873,3.873,0,0,1-.858-1.208,3.256,3.256,0,0,1-.285-1.471,3.426,3.426,0,0,1,.362-1.456,3.838,3.838,0,0,1,.911-1.159,4.225,4.225,0,0,1,2.927-1.041,4.563,4.563,0,0,1,2.017.545,3.8,3.8,0,0,1,1.419,1.326l-2.187,1.512a1.3,1.3,0,0,0-.508-.5,1.515,1.515,0,0,0-.793-.208A1.577,1.577,0,0,0,444,32.7a.929.929,0,0,0-.427.756.5.5,0,0,0,.025.183.911.911,0,0,0,.26.493,1.592,1.592,0,0,0,.508.331c.331.192.706.387,1.134.585s.852.421,1.286.666a3.962,3.962,0,0,1,.945.607l.13.13a5.123,5.123,0,0,1,.567.62Z" transform="translate(-304.309 -20.522)" fill="#fff"/>
    </g>
  </g>
</svg>
