<svg xmlns="http://www.w3.org/2000/svg" xmlns:xlink="http://www.w3.org/1999/xlink" width="157.221" height="36.07" viewBox="0 0 157.221 36.07">
  <defs>
    <linearGradient id="linear-gradient" x1="0.512" y1="0.507" x2="0.012" y2="1.37" gradientUnits="objectBoundingBox">
      <stop offset="0" stop-color="#ec8012"/>
      <stop offset="0.11" stop-color="#e86513"/>
      <stop offset="0.288" stop-color="#e44115"/>
      <stop offset="0.468" stop-color="#e12417"/>
      <stop offset="0.647" stop-color="#de1018"/>
      <stop offset="0.824" stop-color="#dd0419"/>
      <stop offset="0.998" stop-color="#dd001a"/>
    </linearGradient>
    <linearGradient id="linear-gradient-3" x1="0.533" y1="0.524" x2="0.033" y2="1.608" gradientUnits="objectBoundingBox">
      <stop offset="0" stop-color="#ee8910"/>
      <stop offset="0.14" stop-color="#e96512"/>
      <stop offset="0.312" stop-color="#e54115"/>
      <stop offset="0.486" stop-color="#e12417"/>
      <stop offset="0.659" stop-color="#df1018"/>
      <stop offset="0.83" stop-color="#dd0419"/>
      <stop offset="0.998" stop-color="#dd001a"/>
    </linearGradient>
    <linearGradient id="linear-gradient-4" x1="0.592" y1="0.554" x2="0.092" y2="1.422" gradientUnits="objectBoundingBox">
      <stop offset="0" stop-color="#e86d15"/>
      <stop offset="0.034" stop-color="#e76515"/>
      <stop offset="0.228" stop-color="#e34117"/>
      <stop offset="0.423" stop-color="#e02418"/>
      <stop offset="0.617" stop-color="#de1019"/>
      <stop offset="0.809" stop-color="#dd0419"/>
      <stop offset="0.998" stop-color="#dd001a"/>
    </linearGradient>
    <linearGradient id="linear-gradient-5" x1="0.488" y1="0.493" x2="-0.012" y2="1.356" gradientUnits="objectBoundingBox">
      <stop offset="0" stop-color="#e56016"/>
      <stop offset="0.179" stop-color="#d74116"/>
      <stop offset="0.385" stop-color="#cb2416"/>
      <stop offset="0.592" stop-color="#c21016"/>
      <stop offset="0.796" stop-color="#bd0416"/>
      <stop offset="0.998" stop-color="#bc0016"/>
    </linearGradient>
  </defs>
  <g id="Group_13043" data-name="Group 13043" transform="translate(-474.499 -13224.714)">
    <path id="Path_1" data-name="Path 1" d="M630.173,557.882a9.8,9.8,0,1,0,9.8,9.8A9.8,9.8,0,0,0,630.173,557.882Zm0,15.309a5.509,5.509,0,1,1,5.509-5.509A5.509,5.509,0,0,1,630.173,573.191Z" transform="translate(-102.609 12675.08)" fill="#272727"/>
    <path id="Path_2" data-name="Path 2" d="M1048.553,557.882a9.8,9.8,0,1,0,9.8,9.8A9.8,9.8,0,0,0,1048.553,557.882Zm0,15.309a5.509,5.509,0,1,1,5.509-5.509A5.509,5.509,0,0,1,1048.553,573.191Z" transform="translate(-453.515 12675.08)" fill="#272727"/>
    <path id="Path_3" data-name="Path 3" d="M770.537,557.841l-4.268,0v11.213a4.1,4.1,0,0,1-4.095,4.095h-.968a4.1,4.1,0,0,1-4.093-4.095l0-11.216-4.27,0v11.213a8.375,8.375,0,0,0,8.365,8.365h.968a8.375,8.375,0,0,0,8.365-8.365Z" transform="translate(-213.714 12675.115)" fill="#272727"/>
    <path id="Path_4" data-name="Path 4" d="M881.085,561.786h4.96v-3.9H876.6a1.429,1.429,0,0,0-.026.168c-.026,3.9-.07,7.8-.058,11.694a8.019,8.019,0,0,0,.363,2.251,7.826,7.826,0,0,0,6.731,5.433c.679.057,1.366.008,2.085.008-.161-1.516-.31-2.921-.462-4.326a.9.9,0,0,0-.06-.174c-.188,0-.371,0-.553,0a3.386,3.386,0,0,1-3.594-3.589q.035-3.529.059-7.059C881.086,562.137,881.085,561.986,881.085,561.786Z" transform="translate(-317.438 12675.08)" fill="#272727"/>
    <path id="Path_5" data-name="Path 5" d="M964.7,557.841h-5.684l-6.711,8.624v-8.624h-4.742v19.6h4.742v-8.79l6.655,8.79h5.74l-7.9-10.01Z" transform="translate(-377.035 12675.115)" fill="#272727"/>
    <path id="Path_6" data-name="Path 6" d="M1182.666,569.1a6.444,6.444,0,0,0-3.087-2.614,15.56,15.56,0,0,0-3.885-1.039l-.367-.065a4.377,4.377,0,0,1-2.3-1.005,1.027,1.027,0,0,1-.353-.816,1.045,1.045,0,0,1,.472-.771,2.212,2.212,0,0,1,.573-.293,5.539,5.539,0,0,1,1.751-.292,5.278,5.278,0,0,1,1.021.1,2.09,2.09,0,0,1,1.9,1.951.462.462,0,0,0,.516.435h.052q1.037-.032,2.075-.059l1.254-.034a.944.944,0,0,0,.174-.026l.082-.016.156-.027.005-.159a5.834,5.834,0,0,0-1.4-4.046,6.81,6.81,0,0,0-4.721-2.386,12.692,12.692,0,0,0-1.271-.067,7.912,7.912,0,0,0-4.3,1.14,5.184,5.184,0,0,0-2.618,5.358,5.421,5.421,0,0,0,2.784,4.038,11.425,11.425,0,0,0,4.508,1.453,6.431,6.431,0,0,1,2.791.968.962.962,0,0,1,.06,1.669,2.29,2.29,0,0,1-.732.393,5.342,5.342,0,0,1-1.638.255,6.425,6.425,0,0,1-1.693-.24,2.2,2.2,0,0,1-1.891-2.219,1.742,1.742,0,0,0-.042-.212c-.008-.036-.017-.073-.026-.115l-.032-.155h-4.235l-.005.19a6.3,6.3,0,0,0,2.567,5.5,8.478,8.478,0,0,0,5.365,1.581l.294,0a7.864,7.864,0,0,0,4.467-1.313A5.4,5.4,0,0,0,1182.666,569.1Z" transform="translate(-562.111 12675.093)" fill="#272727"/>
    <g id="Group_1" data-name="Group 1" transform="translate(624.709 13245.479)">
      <path id="Path_7" data-name="Path 7" d="M1283.49,639c0,.045,0,.089,0,.133a3.507,3.507,0,0,0,4.613,3.193h0a3.5,3.5,0,0,0,1.285-5.884h0a3.5,3.5,0,0,0-5.9,2.558Z" transform="translate(-1283.49 -635.493)" fill="#e76c2d"/>
    </g>
    <g id="Group_2" data-name="Group 2" transform="translate(474.999 13225.214)">
      <path id="Union_6" data-name="Union 6" d="M17.373,35.065q-.218,0-.435-.009l-.08,0c-.121,0-.242-.01-.363-.018l-.208-.013q-.208-.015-.415-.035a17.568,17.568,0,0,1-4.275-.953l-.192-.07-.179-.068-.021-.008-.176-.069-.011,0-.188-.076-.019-.008-.029-.012L10.74,33.7c-.041-.016-.083-.035-.124-.052l-.129-.056-.042-.018-.192-.086c-.128-.059-.255-.118-.381-.179l-.188-.093a17.569,17.569,0,0,1-2.994-1.9h0l-.162-.13h0l-.161-.132-.16-.133-.052-.045-.106-.091L5.9,30.65l-.006-.006L5.738,30.5l0,0-.152-.14-.011-.011-.148-.139L5.411,30.2l-.127-.123-.03-.03.063.061-.063-.061h0l0,0-.011-.011-.1-.1L5.1,29.892l-.075-.076h0l-.156-.16-.153-.162h0l-.151-.163h0l-.141-.156-.006-.007,0,0c-.043-.048-.086-.1-.129-.148l-.135-.158-.133-.16-.024-.028-.1-.117-.012-.016-.006-.007-.125-.156,0,0a17.59,17.59,0,0,1-1.994-3.18c-.061-.126-.121-.253-.18-.381-.029-.065-.058-.128-.086-.192s-.05-.113-.074-.17h0l-.01-.023L1.356,24.3l-.03-.072c-.051-.124-.1-.247-.149-.371l-.041-.109-.034-.09-.008-.02-.063-.173a17.575,17.575,0,0,1-.953-4.274q-.019-.207-.035-.415c0-.07-.009-.139-.013-.209q-.011-.181-.018-.363l0-.081Q0,17.91,0,17.692H0c0-.107,0-.215,0-.323,0-.145,0-.29.009-.435,0-.021,0-.043,0-.065,0-.094.008-.187.013-.281s.011-.2.018-.306q.015-.207.035-.414.029-.311.07-.621c.018-.138.038-.274.059-.412q.1-.618.236-1.231c.031-.135.065-.271.1-.406q.154-.609.353-1.207c.044-.133.09-.265.137-.4.027-.076.055-.151.083-.226q.031-.084.065-.168a.1.1,0,0,1,.006-.015l.062-.159q.039-.1.08-.2l.007-.017a.021.021,0,0,1,0-.006l.021-.048.052-.122.01-.023c.025-.057.048-.114.074-.171l.007-.016q.039-.089.08-.176.088-.192.18-.381.138-.283.285-.561h0q.1-.185.2-.367h0q.206-.367.428-.721c.037-.06.075-.118.113-.177q.452-.7.965-1.353l.015-.019.113-.141a.02.02,0,0,1,.005-.007L3.9,6.508c.039-.048.079-.1.119-.145h0l.113-.135.018-.022,0,0,.057-.068.065-.075.013-.016L4.414,5.9l.007-.008h0l.108-.12q.24-.265.493-.522a12.159,12.159,0,0,0-3.459,8.514,12.159,12.159,0,0,1,3.46-8.514l.035-.036L5.1,5.168l.037-.037.1-.1.011-.011.161-.156.161-.153c.106-.1.213-.2.32-.292.155-.137.313-.273.473-.405l.161-.132.163-.13q.327-.258.667-.5h0c.113-.081.227-.16.342-.238q.345-.235.7-.453c.157-.1.315-.189.475-.28L9.008,2.2c.1-.056.2-.111.3-.165l.186-.1q.279-.144.565-.279l.323-.149.06-.027.059-.026.135-.058.195-.082.173-.071.023-.009h0l.159-.062.015-.006.023-.009L11.4,1.1a17.55,17.55,0,0,1,4.06-.982q.206-.025.414-.044c.138-.014.277-.025.415-.035l.208-.013c.121-.007.242-.013.364-.018l.076,0Q17.152,0,17.372,0q.163,0,.324,0c.145,0,.29,0,.435.009l.072,0c.124,0,.248.01.371.018l.208.013q.415.03.829.079a17.547,17.547,0,0,1,3.861.909l.173.063.02.008.024.009.153.059q.4.152.781.323.194.086.383.175h0q.286.135.564.279h0q.279.145.554.3.639.36,1.243.771h0A17.647,17.647,0,0,1,29.33,4.557h0l.152.14.011.01.1.095.062.059.127.123.009.009.035.034.1.1.037.037.076.078,0,0,.03.03.123.127.014.015c.047.048.093.1.139.148l.011.011.14.152,0,0,.139.155.006.006.131.15.135.158.134.16c.045.053.088.107.132.161h0l.13.162h0a17.563,17.563,0,0,1,2,3.182q.092.189.179.381c.029.065.058.128.086.192l.084.194c.025.059.05.118.075.177l.007.017q.075.184.148.369l.065.168c.028.075.056.151.083.226a17.568,17.568,0,0,1,.953,4.274c.006.069.013.138.018.207s.011.137.016.206v.006c0,.065.009.129.013.2a.094.094,0,0,1,0,.013c.007.118.013.236.017.355,0,.029,0,.058,0,.087,0,.144.007.288.009.433h0q0,.162,0,.324,0,.217-.009.432v.03c0,.017,0,.035,0,.053q-.006.181-.018.363a.1.1,0,0,1,0,.013c0,.065-.008.13-.013.195h0q-.015.207-.035.415a17.521,17.521,0,0,1-.953,4.274h0l-.063.172-.008.02c0,.008-.006.016-.009.025s-.016.044-.025.065-.028.073-.041.109q-.073.187-.149.371a.178.178,0,0,0-.007.017l0,.005c-.007.016-.014.034-.021.05q-.025.061-.052.122l-.006.015,0,.008c-.007.018-.015.035-.023.053-.016.039-.034.079-.051.118-.025.057-.051.113-.076.17a.194.194,0,0,1-.01.022h0c-.029.065-.059.127-.089.19l-.091.19h0l-.093.188h0a17.585,17.585,0,0,1-1.283,2.157l-.12.171q-.121.17-.246.336c-.042.055-.084.111-.126.166l-.128.164-.13.163c-.038.047-.076.094-.115.141l-.016.02-.116.139-.017.02h0l-.135.158h0l-.129.147h0l-.007.008-.141.156h0l-.151.163h0l-.153.162q-.077.081-.156.16h0l-.113.114-.1.1-.01.01,0,0-.03.03-.127.123-.015.014-.148.139-.011.011-.152.14,0,0c-.051.047-.1.094-.155.139l-.156.137-.158.136h0c-.106.09-.213.178-.321.265l-.163.13a17.563,17.563,0,0,1-2.994,1.9h0L25.2,33.3h0q-.189.092-.38.18h0l-.192.086-.177.077-.016.007-.061.026-.111.047-.019.008q-.188.077-.376.15l-.021.008-.145.055-.034.013-.02.008-.172.063h0a17.568,17.568,0,0,1-4.274.953q-.207.02-.415.035l-.208.013c-.121.007-.242.013-.363.018l-.08,0c-.145,0-.29.007-.435.009h-.161A1.169,1.169,0,0,1,17.373,35.065ZM13.763,33.5a12.235,12.235,0,0,0,2.821-.33,12.247,12.247,0,0,1-2.821.33Zm0,0Zm11.475-1.174h0ZM28.407,28.4a12.246,12.246,0,0,1-3.166,3.92,12.246,12.246,0,0,0,3.166-3.92,12.122,12.122,0,0,0,1.3-4.8,12.121,12.121,0,0,1-1.3,4.795ZM13.765,25.957a12.264,12.264,0,0,0,1.877-.145,12.267,12.267,0,0,1-1.877.145Zm0,0Zm-3.9-.638-.039-.013ZM5.335,12.2a12.193,12.193,0,0,0,12.1,12.2h.19c.115,0,.228-.006.342-.013h.011l.158-.012h.015q.119-.011.237-.025l.021,0c.048-.006.1-.013.145-.02.15-.022.3-.048.445-.082l.126-.028.039-.01.12-.03.1-.028.08-.023.024-.007.11-.034.1-.034.077-.027.137-.048q.072-.026.143-.055l.03-.011.076-.031.019-.008.019-.008.019-.008.011,0,.008,0,.019-.008.057-.025h0l.031-.014.025-.011.007,0c.034-.016.068-.031.1-.048l.042-.019.053-.027.007,0,.03-.015.035-.018.022-.011h0l.015-.009.072-.038.059-.031h0l.145-.082h0c.026-.016.053-.031.079-.048l.065-.038h0l.047-.029.028-.018.013-.008c.018-.01.036-.022.054-.034l.053-.035a.424.424,0,0,0,.039-.026c.016-.01.032-.02.048-.032s.032-.021.046-.032l.017-.012.008-.006.067-.047.057-.042.079-.058h0l.05-.039.029-.023.054-.042h0l.043-.035.063-.051,0,0,.022-.018.1-.083c.012-.009.023-.019.034-.029l.025-.023c.025-.022.048-.044.074-.067a.28.28,0,0,0,.029-.027h0l.017-.016h0c.02-.017.04-.036.059-.055l.048-.046h0l.067-.067h0l.034-.034.032-.033c.016-.016.031-.032.045-.048s.039-.041.058-.061.036-.038.052-.058.038-.04.055-.061.037-.04.053-.061q.081-.092.156-.186c.03-.036.058-.072.086-.108l.015-.019c.014-.016.026-.033.039-.05s.04-.053.059-.081c.032-.043.065-.087.094-.132.016-.022.032-.045.047-.067s.031-.045.045-.068c.03-.044.059-.088.086-.133.016-.024.031-.048.045-.072s.018-.029.026-.044a.186.186,0,0,0,.016-.026q.043-.071.082-.141c.026-.047.053-.095.079-.143l.005-.01c.011-.02.023-.041.032-.062l.008-.015c.007-.013.014-.027.02-.04l.009-.018c.005-.01.01-.02.015-.03s.015-.029.022-.044h0l.018-.037c.01-.019.019-.039.028-.059s.01-.021.015-.031l.009-.019.008-.018h0l.018-.041c.011-.024.021-.048.031-.071s.009-.021.013-.031l0-.007.007-.016c0-.005.006-.014.009-.021.014-.031.027-.063.039-.095l.007-.019c.02-.051.04-.1.059-.153s.033-.091.048-.137a.171.171,0,0,0,.006-.018l.021-.06q.053-.158.1-.318c.023-.081.044-.161.063-.242.013-.055.026-.109.037-.164q.035-.164.063-.331c.014-.083.026-.167.036-.252.018-.141.031-.283.04-.426.007-.115.012-.23.014-.346h0v-.19c0-.116-.006-.231-.014-.346h0q-.013-.214-.04-.425h0c-.01-.084-.022-.168-.036-.252-.018-.111-.039-.222-.063-.331-.011-.055-.024-.109-.037-.163h0q-.029-.121-.063-.242h0q-.045-.16-.1-.317L24.02,15.3a.17.17,0,0,0-.006-.018l-.048-.137-.007-.019q-.025-.068-.052-.135l-.007-.019q-.023-.056-.047-.113l-.016-.039-.032-.075-.011-.026,0-.01-.013-.029-.027-.058-.01-.02a.011.011,0,0,0,0-.006q-.016-.037-.035-.073h0l-.048-.1-.016-.034-.008-.015c-.012-.024-.025-.048-.038-.072l-.031-.059h0l-.047-.083c-.011-.021-.023-.041-.034-.062-.028-.048-.057-.1-.086-.143a.012.012,0,0,0,0-.006c-.014-.023-.028-.046-.043-.069l0,0a.221.221,0,0,0-.015-.024c-.008-.014-.016-.027-.025-.041l-.046-.069-.045-.068,0,0h0l-.1-.138-.036-.05-.005-.007-.005-.007c-.026-.037-.054-.074-.082-.11l-.01-.013-.033-.043-.016-.021-.035-.044-.015-.019-.031-.037a.251.251,0,0,0-.021-.026c-.016-.021-.034-.041-.052-.062s-.035-.041-.053-.062l-.051-.059,0,0-.054-.06-.025-.027c-.009-.009-.018-.021-.029-.031l-.035-.037L22.5,12.8l-.012-.012-.016-.016-.019-.02-.01-.01c-.018-.02-.037-.039-.057-.058h0l-.067-.067-.048-.045a.2.2,0,0,0-.023-.022l-.036-.034h0l0,0c-.019-.018-.038-.036-.057-.052s-.04-.038-.06-.055q-.091-.083-.184-.159l-.063-.051,0,0c-.032-.027-.065-.053-.1-.078l-.027-.02s0,0,0,0c-.043-.034-.086-.066-.129-.1l-.057-.042-.075-.052c-.044-.032-.089-.062-.134-.091s-.091-.061-.137-.088a.042.042,0,0,0-.013-.008l-.062-.039-.065-.038-.016-.009q-.13-.079-.264-.149l0,0-.072-.038-.015-.008h0l-.028-.014-.029-.015h0c-.048-.025-.1-.048-.147-.072h0L20.4,11.3l-.018-.009h0l-.025-.011-.016-.007-.015-.007-.057-.025-.019-.008-.008,0-.011,0-.019-.008-.019-.008-.019-.008-.076-.031-.076-.03h0l-.1-.036-.137-.048-.077-.027L19.632,11l-.079-.025-.081-.024-.08-.023a6.818,6.818,0,0,0-1.159-.219L18.15,10.7c-.085-.007-.172-.014-.258-.018l-.086,0c-.057,0-.114,0-.171,0h0c-.016,0-.031,0-.048,0s-.032,0-.048,0h-.095c-.058,0-.116,0-.174,0l-.086,0c-.086,0-.173.01-.258.018l-.085.008a6.816,6.816,0,0,0-1.159.219l-.08.023c-.153.045-.3.095-.452.15-.1.035-.192.074-.286.113l-.019.008-.011,0-.008,0-.1.044-.006,0-.024.011h0l-.018.009h0l-.074.034c-.048.023-.1.047-.147.072l-.029.015-.028.014-.016.008c-.024.012-.048.025-.072.038l0,0q-.133.07-.264.149l-.016.009-.065.038-.062.039-.013.008c-.046.028-.092.057-.137.088s-.089.06-.134.091-.089.062-.132.095-.087.063-.129.1l-.028.021-.1.077-.065.053q-.093.076-.184.159l-.06.055-.057.052-.062.059-.048.045-.067.067h0l-.057.058-.01.01-.046.048-.057.06a.184.184,0,0,0-.016.018c-.032.034-.063.068-.094.1l-.051.059L12.3,13.1c-.016.018-.031.036-.046.054l-.006.007c-.016.021-.034.042-.051.063l-.015.019c-.013.015-.024.029-.035.044a.181.181,0,0,0-.016.021l-.033.043-.014.018c-.012.016-.024.031-.035.047s-.025.032-.037.05a.136.136,0,0,0-.016.022c-.025.034-.048.067-.073.1a.22.22,0,0,0-.016.023l0,.006-.029.041a.142.142,0,0,0-.011.016l-.036.053-.011.017c-.016.023-.031.046-.046.069l-.025.041-.06.1,0,.006c-.013.02-.025.041-.037.061l0,0-.013.022c-.024.039-.047.079-.069.119l-.047.083h0l-.032.059c-.015.027-.029.054-.043.082l0,.006c-.005.01-.01.019-.014.028l0,.005-.013.025c-.006.011-.011.022-.016.034s-.014.028-.02.041l-.019.04-.028.059-.023.048-.018.039c-.02.043-.039.086-.057.129l0,.006c-.007.016-.015.034-.021.05l-.039.1-.022.058q-.03.077-.058.154c-.019.052-.037.1-.054.156L11,15.441c-.044.138-.084.278-.12.42-.01.041-.02.082-.029.123s-.016.068-.023.1q-.035.164-.063.331c-.009.056-.017.111-.025.168s-.013.095-.018.142-.012.108-.016.162h0c-.016.182-.027.366-.029.551h0v.19a6.838,6.838,0,0,0,.044.688c.006.057.014.113.021.169s.016.112.025.167q.027.167.063.331c.006.028.012.055.018.082q.019.082.039.163c.034.135.073.268.114.4q.038.119.081.235c.019.052.038.1.058.154h0l.022.057,0,.012c.011.028.023.055.034.083s.016.038.024.056h0c.021.048.042.1.065.147l0,0,.008.018.052.11c.012.026.025.052.038.077s.016.035.026.052.013.027.02.04c.015.029.03.059.046.087q.038.072.079.143c.011.021.022.041.034.062l.018.029c.015.026.03.051.045.076a.493.493,0,0,0,.026.043c.014.024.029.048.045.072q.041.067.086.133c.034.053.07.106.108.158.025.037.051.073.078.108s.031.044.048.065l.01.014.024.03a.158.158,0,0,0,.015.02l.015.019c.028.036.056.073.086.108s.034.042.052.063l.052.062.053.062.051.059,0,0c.025.029.052.059.08.088l.014.016.07.074v0l.017.018a12.169,12.169,0,0,1-3.484-8.522,12.169,12.169,0,0,0,3.478,8.517l.01.01.019.02.01.01.005.005.03.031.021.021.058.057.01.01h0a.188.188,0,0,0,.021.02l.027.026.023.021c.012.013.025.024.037.035l.018.016h0l.029.027.011.01.06.055h0l.019.018.008.007.032.029.062.053.035.03.02.016.069.057.024.019.019.016.02.016c.011.009.023.019.035.027l.029.023c.016.014.034.027.05.039h0l.079.058c.044.032.088.065.132.095l.117.081.017.011.017.011q.06.041.119.077c.046.03.093.058.139.085.09.055.18.105.272.154l0,0,.007,0c.016.01.034.019.051.027l.021.011.016.009.015.007.016.008.06.03.021.01.036.018.042.019.1.048.007,0,.024.011.006,0,.1.044.008,0,.011,0,.019.008.113.047.154.06.019.007c.1.036.194.07.293.1.053.016.106.033.159.048h0l.08.023.081.022.161.041h0c.054.013.108.026.163.037.137.03.275.055.415.076q.084.013.168.024h0q.11.014.221.024l.034,0,.171.013h0c.115.007.23.012.346.013a12.19,12.19,0,0,1-12.1-12.2Zm24.4,10.671v0ZM25.294,9.772A12.19,12.19,0,0,1,33.507,21.3,12.208,12.208,0,0,0,25.294,9.771l-.083-.028Zm-2.222,2.222a12.254,12.254,0,0,1,5.436,5.537,12.254,12.254,0,0,0-5.436-5.537ZM18.208,9.5a12.249,12.249,0,0,1,3.1-.4,12.239,12.239,0,0,0-3.1.4Zm3.1-.4ZM18.466,1.893a12.255,12.255,0,0,1,2.841-.334,12.241,12.241,0,0,0-2.84.334Zm2.85-.334ZM5.253,30.046Z" transform="translate(0.001 0.005)" stroke="rgba(0,0,0,0)" stroke-miterlimit="10" stroke-width="1" fill="url(#linear-gradient)"/>
      <path id="Union_3" data-name="Union 3" d="M17.735,22.4A12.2,12.2,0,0,0,6.96,4.665h0c-.016,0-.031,0-.048,0s-.032,0-.048,0H6.767c-.058,0-.116,0-.174,0l-.086,0c-.086,0-.173.01-.258.018L6.165,4.7a6.817,6.817,0,0,0-1.159.219l-.08.023c-.153.045-.3.095-.452.15-.1.035-.192.074-.286.113l-.019.008-.011,0-.008,0-.1.044-.006,0-.024.011h0L4,5.289H4l-.074.034c-.048.023-.1.047-.147.072l-.029.015-.028.014-.016.008c-.024.012-.048.025-.072.038l0,0q-.133.07-.264.149l-.016.009-.065.038-.062.039-.013.008c-.046.028-.092.057-.137.088s-.09.06-.134.091-.089.062-.132.095-.087.063-.129.1l-.028.021-.1.077-.065.053q-.093.076-.184.159l-.06.055L2.189,6.5l-.062.059-.048.045A12.137,12.137,0,0,1,6.863,3.7l.113-.036L6.863,3.7a12.137,12.137,0,0,0-4.786,2.91l-.067.067h0l-.057.058-.01.01L1.9,6.791l-.057.06a.184.184,0,0,0-.016.018c-.032.034-.063.068-.094.1l-.051.059-.053.062c-.016.018-.031.036-.046.054l-.006.007c-.016.021-.034.042-.051.063l-.015.019c-.013.015-.024.029-.035.044a.181.181,0,0,0-.016.021l-.033.043-.014.018c-.012.016-.024.031-.035.047s-.025.032-.037.05a.136.136,0,0,0-.016.022c-.025.034-.048.067-.073.1a.22.22,0,0,0-.016.023l0,.006L1.2,7.653a.142.142,0,0,0-.011.016l-.036.053-.011.017c-.016.023-.031.046-.046.069l-.025.041-.06.1,0,.006c-.013.02-.025.041-.037.061l0,0-.013.022c-.024.039-.047.079-.069.119L.839,8.24h0L.807,8.3c-.015.027-.029.054-.043.082l0,.006c-.005.01-.01.019-.014.028l0,.005-.013.025c-.006.011-.011.022-.016.034s-.014.028-.02.041l-.019.04-.028.059-.023.048-.018.039c-.02.043-.039.086-.057.129l0,.006c-.007.016-.015.034-.021.05l-.039.1-.022.058Q.435,9.12.407,9.2c-.019.052-.037.1-.054.156l-.026.079c-.044.138-.084.278-.12.42-.01.041-.02.082-.029.123s-.016.068-.023.1q-.038.164-.065.331c-.01.056-.017.112-.026.168s-.013.095-.018.142-.012.108-.016.162h0c-.017.182-.028.366-.03.552a12.2,12.2,0,1,1,24.4-.067c0,.108,0,.216,0,.324q0,.217-.009.432v.03c0,.017,0,.035,0,.053q-.006.181-.018.363a.1.1,0,0,1,0,.013c0,.065-.008.13-.013.195h0q-.015.207-.035.415a17.521,17.521,0,0,1-.953,4.274h0l-.063.172-.008.02c0,.008-.006.016-.009.025s-.016.044-.025.065-.028.073-.041.109q-.073.187-.149.371a.179.179,0,0,0-.007.017l0,.005c-.007.016-.014.034-.021.05q-.025.061-.052.122l-.006.015,0,.008c-.007.018-.015.035-.023.053-.016.039-.034.079-.051.118-.025.057-.051.113-.076.17a.193.193,0,0,1-.01.022h0c-.029.065-.059.127-.089.19s-.06.127-.091.19h0l-.093.188h0a17.584,17.584,0,0,1-1.283,2.157l-.12.171q-.121.17-.246.336c-.042.055-.084.111-.126.166l-.128.164-.13.163c-.038.047-.076.094-.115.141l-.016.02-.116.139-.017.02h0l-.135.158h0l-.129.147h0l-.007.008-.141.156h0l-.151.163h0l-.153.162-.156.16h0l-.113.114-.1.1-.01.01,0,0-.03.03-.127.123-.015.014-.148.139-.011.011-.152.14,0,0c-.051.047-.1.094-.155.139l-.156.137-.158.136h0q-.158.135-.321.265l-.163.13a17.563,17.563,0,0,1-2.994,1.9h0l-.188.093h0q-.189.092-.38.18h0l-.192.086-.177.077-.016.007-.061.026-.111.047-.019.008q-.188.077-.376.15l-.021.008-.145.055L13,27.955l-.02.008-.172.063h0a17.568,17.568,0,0,1-4.274.953q-.207.02-.415.035l-.208.013c-.121.007-.242.013-.363.018l-.08,0c-.145,0-.29.007-.435.009A12.2,12.2,0,0,0,17.735,22.4ZM14.622,3.769A12.19,12.19,0,0,1,22.835,15.3,12.208,12.208,0,0,0,14.622,3.769l-.083-.028Zm-7.6-.123A12.239,12.239,0,0,1,10.632,3.1a12.235,12.235,0,0,0-3.608.544ZM10.64,3.1Z" transform="translate(10.672 6.008)" stroke="rgba(0,0,0,0)" stroke-miterlimit="10" stroke-width="1" opacity="0.85" fill="url(#linear-gradient)"/>
      <path id="Union_4" data-name="Union 4" d="M6.637,23.072A12.2,12.2,0,0,1,12.011,0h.324c.145,0,.29,0,.435.009l.072,0c.124,0,.248.01.371.018l.208.013q.415.03.829.079a17.547,17.547,0,0,1,3.861.909l.173.063.02.008.024.009.153.059q.4.152.781.323.194.086.383.175h0q.286.135.564.279h0q.279.145.554.3.639.36,1.243.771h0a17.647,17.647,0,0,1,1.962,1.546h0l.152.14.011.01.1.095.062.059.127.123L24.432,5l.035.034.1.1.037.037.076.078,0,0,.03.03.123.127.014.015c.047.048.093.1.139.148L25,5.584l.14.152,0,0,.139.155.006.006.131.15.135.158.134.16c.045.053.088.107.132.161h0l.13.162h0a17.563,17.563,0,0,1,2,3.182q.092.189.179.381c.029.065.058.128.086.192l.084.194c.025.059.05.118.075.177l.007.017q.075.184.148.369l.065.168c.028.075.056.151.083.226a17.568,17.568,0,0,1,.953,4.274c.006.069.013.138.018.207s.011.137.016.206v.006c0,.065.009.129.013.2a.094.094,0,0,1,0,.013c.007.118.013.236.017.355,0,.029,0,.058,0,.087,0,.144.007.289.009.434a12.2,12.2,0,1,0-24.4.067h0v.19a6.838,6.838,0,0,0,.044.688c.006.057.014.113.021.169s.016.112.025.167q.027.167.063.331c.006.028.012.055.018.082q.019.082.039.163c.034.135.073.268.114.4q.038.119.081.235c.019.052.038.1.058.154h0l.022.057,0,.012c.011.028.023.055.034.083s.016.038.024.056h0c.021.048.042.1.065.147l0,0,.008.018.052.11c.012.026.025.052.038.077s.016.035.026.052.013.027.02.04c.015.029.03.059.046.087q.038.072.079.143c.011.021.022.041.034.062L6.244,21c.015.026.03.051.045.076a.493.493,0,0,0,.026.043c.014.024.029.048.045.072q.041.067.086.133c.034.053.07.106.108.158.025.037.051.073.078.108s.031.044.048.065l.01.014.024.03a.158.158,0,0,0,.015.02l.015.019c.028.036.056.073.086.108s.034.042.052.063l.052.062.053.062.051.059,0,0c.025.029.052.059.08.088l.014.016.07.074v0l.017.018a12.169,12.169,0,0,1-3.475-8.517A12.169,12.169,0,0,0,7.225,22.29l.01.01.019.02.01.01.005.005.03.031.021.021.058.057.01.01h0a.188.188,0,0,0,.021.02l.027.026.023.021c.012.013.025.024.037.035l.018.016h0l.029.027.012.011.06.055h0l.019.018.008.007.032.029.062.053.035.03.02.016.069.057.024.019.019.016.02.016c.011.009.023.019.035.027l.029.023c.016.014.034.027.05.039h0l.079.058c.044.032.088.065.132.095l.117.081.017.011.017.011q.06.041.119.077c.046.03.093.058.139.085.09.055.18.105.272.154l0,0,.007,0c.016.01.034.019.051.027l.021.011.016.009.015.007.016.008.06.03.021.01.036.018.042.019.1.048.007,0,.024.011.006,0,.1.044.008,0,.011,0,.019.008.113.047.154.06.019.007c.1.036.194.07.293.1.053.016.106.033.159.048h0l.08.023.081.022.161.041h0c.054.013.108.026.163.037.137.03.275.055.415.076q.084.013.168.024h0q.11.014.221.024l.034,0,.171.013h0c.115.007.23.012.346.013a12.13,12.13,0,0,1-5.438-1.327ZM12.208,2.148a12.234,12.234,0,0,1,3.737-.585,12.23,12.23,0,0,0-3.738.585Zm3.745-.585Z" transform="translate(5.361 0.001)" stroke="rgba(0,0,0,0)" stroke-miterlimit="10" stroke-width="1" opacity="0.85" fill="url(#linear-gradient-3)"/>
      <path id="Union_2" data-name="Union 2" d="M17.372,24.4q-.218,0-.435-.009l-.08,0c-.121,0-.242-.01-.363-.018l-.208-.013q-.208-.015-.415-.035a17.568,17.568,0,0,1-4.275-.953l-.192-.07-.179-.068-.021-.008-.176-.069-.011,0-.188-.076-.019-.008-.029-.012-.042-.018c-.041-.016-.083-.035-.124-.052l-.129-.056-.042-.018-.192-.086c-.128-.059-.255-.118-.381-.179l-.188-.093a17.568,17.568,0,0,1-2.994-1.9h0l-.162-.13h0l-.161-.132-.16-.133L6.154,20.2l-.106-.091-.15-.131-.006-.006-.155-.139,0,0-.152-.14-.011-.011-.148-.139-.015-.014-.127-.123-.03-.03h0l0,0-.011-.011-.1-.1L5.1,19.224l-.075-.076h0l-.156-.16-.153-.162h0l-.151-.163h0l-.141-.156L4.416,18.5l0,0c-.043-.048-.086-.1-.129-.148l-.135-.158-.133-.16L3.993,18l-.1-.117-.012-.016-.006-.007-.125-.156,0,0a17.59,17.59,0,0,1-1.993-3.179c-.061-.126-.121-.253-.18-.381-.029-.065-.058-.128-.086-.192s-.05-.113-.074-.17h0l-.01-.023-.053-.123-.03-.072c-.051-.124-.1-.247-.149-.371l-.041-.109-.034-.09-.008-.02L1.03,12.8A17.575,17.575,0,0,1,.077,8.525Q.058,8.318.043,8.11c0-.07-.009-.139-.013-.208Q.019,7.72.012,7.539l0-.081Q0,7.241,0,7.024a12.2,12.2,0,1,0,24.4-.066c0-.031,0-.063,0-.1v-.1c0-.116-.006-.231-.014-.346h0q-.013-.214-.04-.425h0c-.01-.084-.022-.168-.036-.252-.018-.111-.039-.222-.063-.331-.011-.055-.024-.109-.037-.163h0q-.029-.121-.063-.242h0q-.045-.16-.1-.317l-.021-.061a.169.169,0,0,0-.006-.018l-.048-.137-.007-.019q-.025-.068-.052-.135L23.905,4.3q-.023-.056-.047-.113l-.016-.039-.032-.075L23.8,4.051l0-.01-.013-.029-.027-.058-.01-.02a.011.011,0,0,0,0-.006q-.016-.037-.035-.073h0l-.048-.1-.016-.034-.008-.015c-.012-.024-.025-.048-.038-.072l-.031-.059h0l-.047-.083c-.011-.021-.023-.041-.034-.062-.028-.048-.057-.1-.086-.143a.012.012,0,0,0,0-.006c-.014-.023-.028-.046-.043-.069l0,0a.221.221,0,0,0-.015-.024c-.008-.014-.016-.027-.025-.041l-.046-.069-.045-.068,0,0h0l-.1-.138-.036-.05-.005-.007L23.072,2.8c-.026-.037-.054-.074-.082-.11l-.01-.013-.033-.043-.016-.021-.035-.044-.015-.019-.031-.037a.251.251,0,0,0-.021-.026c-.016-.021-.034-.041-.052-.062s-.035-.041-.053-.062l-.051-.059,0,0-.054-.06L22.59,2.22c-.009-.009-.018-.021-.029-.031l-.035-.037-.021-.023-.012-.012a12.157,12.157,0,0,1,3.471,8.511,12.159,12.159,0,0,0-3.479-8.516L22.472,2.1l-.019-.02-.01-.01c-.018-.02-.037-.039-.057-.058h0l-.067-.067L22.271,1.9a.2.2,0,0,0-.023-.022l-.036-.034h0l0,0c-.019-.018-.038-.036-.057-.052s-.04-.038-.06-.055q-.091-.083-.184-.159l-.063-.051,0,0c-.032-.027-.065-.053-.1-.078l-.027-.02s0,0,0,0c-.043-.034-.086-.066-.129-.1l-.057-.042-.075-.052c-.044-.032-.089-.062-.134-.091s-.091-.061-.137-.088a.042.042,0,0,0-.013-.008L21.112,1,21.047.965,21.031.956Q20.9.877,20.767.807l0,0L20.691.767,20.676.759h0L20.648.745,20.619.73h0c-.048-.025-.1-.048-.147-.072h0L20.4.623,20.38.614h0L20.353.6,20.337.6,20.321.589,20.264.564,20.246.556l-.008,0-.011,0L20.207.54,20.189.532,20.17.524,20.094.493l-.076-.03h0l-.1-.036L19.786.378,19.708.352l-.08-.026L19.55.3,19.469.278,19.39.254a6.818,6.818,0,0,0-1.158-.22L18.147.026c-.085-.007-.172-.014-.258-.018L17.8,0c-.057,0-.114,0-.171,0A12.2,12.2,0,0,1,17.7,24.4h-.323ZM13.76,22.835Zm0,0a12.229,12.229,0,0,0,3.713-.577,12.233,12.233,0,0,1-3.713.577Zm-8.446-3.4-.063-.061Z" transform="translate(0.001 10.673)" stroke="rgba(0,0,0,0)" stroke-miterlimit="10" stroke-width="1" opacity="0.85" fill="url(#linear-gradient-4)"/>
      <path id="Union_5" data-name="Union 5" d="M6.662,28.406A12.2,12.2,0,0,1,0,17.7c0-.107,0-.215,0-.323,0-.145,0-.29.009-.435,0-.021,0-.043,0-.065,0-.094.008-.187.013-.281s.011-.2.018-.306q.015-.208.035-.415.029-.311.07-.621c.018-.138.038-.274.059-.412q.1-.618.236-1.231c.031-.135.065-.271.1-.406q.154-.609.353-1.207c.044-.133.09-.265.137-.4.027-.076.055-.151.083-.226q.031-.084.065-.168a.1.1,0,0,1,.006-.015l.062-.159c.026-.065.053-.131.08-.2l.007-.017a.021.021,0,0,1,0-.006l.021-.048.052-.122.01-.023c.025-.057.048-.114.074-.171L1.5,10.43q.039-.089.08-.176.088-.192.18-.381.138-.283.285-.561h0q.1-.185.2-.367h0q.206-.365.428-.719c.037-.06.075-.118.113-.177q.452-.7.965-1.353l.015-.019.113-.141a.02.02,0,0,1,.005-.007L3.9,6.512c.039-.048.079-.1.119-.145h0l.113-.135.018-.022,0,0,.057-.068.065-.075.013-.016L4.415,5.9l.007-.008h0l.108-.12q.24-.265.493-.522a12.159,12.159,0,0,0-3.459,8.512A12.159,12.159,0,0,1,5.023,5.25l.035-.036L5.1,5.172l.037-.037.1-.1.011-.011.161-.156.161-.153c.106-.1.213-.2.32-.292.155-.137.313-.273.473-.405l.161-.132.163-.13q.327-.258.667-.5h0c.113-.081.227-.16.342-.238q.345-.235.7-.453c.157-.1.315-.189.475-.28l.132-.074c.1-.056.2-.111.3-.165l.186-.1q.279-.144.565-.279l.323-.149.06-.027.059-.026.135-.058.195-.082.173-.071.023-.009h0l.159-.062.015-.006.023-.009L11.4,1.1a17.55,17.55,0,0,1,4.06-.982q.206-.025.414-.044c.138-.013.277-.025.415-.035L16.5.03c.121-.007.242-.013.364-.018l.076,0Q17.153,0,17.372,0a12.2,12.2,0,1,0,.068,24.4h.19c.115,0,.228-.006.342-.013h.011l.158-.012h.015q.119-.011.237-.025l.021,0c.048-.006.1-.013.145-.02.15-.022.3-.048.445-.082l.126-.028.039-.01.12-.03.1-.028.08-.023.024-.007.11-.034.1-.034.077-.026.137-.048q.072-.026.143-.055l.03-.011c.026-.01.051-.02.076-.032l.019-.008.019-.008.019-.008.011,0,.008,0,.019-.008.057-.025h0l.031-.014.025-.011.007,0c.034-.016.068-.031.1-.048l.042-.019.053-.027.007,0,.03-.015.035-.018.022-.011h0l.015-.009.072-.038.059-.031h0l.145-.082h0c.026-.016.053-.031.079-.048l.065-.038h0l.047-.029.028-.018.013-.008c.018-.01.036-.022.054-.034l.053-.035a.424.424,0,0,0,.039-.026c.016-.01.032-.02.048-.032s.032-.021.046-.032l.017-.012.008-.006.067-.047.057-.042.079-.058h0l.05-.039.029-.023.054-.042h0l.043-.035.063-.051,0,0,.022-.018.1-.083c.012-.009.023-.019.034-.029l.025-.023c.025-.022.048-.044.074-.067a.281.281,0,0,0,.029-.027h0l.017-.016h0c.02-.017.04-.036.059-.055l.048-.046h0l.067-.067h0l.034-.034.032-.033c.016-.016.031-.032.045-.048s.039-.041.058-.061.036-.038.052-.058.038-.04.055-.061.037-.04.053-.061q.081-.092.156-.186c.03-.036.058-.072.086-.108l.015-.019c.014-.016.026-.033.039-.05s.04-.053.059-.081c.032-.043.065-.087.094-.132.016-.022.032-.045.047-.067s.031-.045.045-.068c.03-.044.059-.088.086-.133.016-.024.031-.048.045-.072s.018-.029.026-.044a.185.185,0,0,0,.016-.026q.043-.071.082-.141c.026-.047.053-.095.079-.143l.005-.01c.011-.02.023-.041.032-.062l.008-.015c.007-.013.014-.027.02-.04l.009-.018c.005-.01.01-.02.015-.03s.015-.029.022-.044h0l.018-.037c.01-.019.019-.039.028-.059s.01-.021.015-.031l.009-.019.008-.018h0l.018-.041c.011-.024.021-.048.031-.071s.009-.021.013-.031l0-.007.007-.016c0-.005.006-.014.009-.021.014-.031.027-.063.039-.095l.007-.019c.02-.051.04-.1.059-.153s.033-.091.048-.137a.17.17,0,0,0,.006-.018l.021-.06q.053-.158.1-.318c.023-.081.044-.161.063-.242.013-.055.026-.109.037-.164q.035-.164.063-.331c.014-.083.026-.167.036-.252.018-.141.031-.283.04-.426.007-.115.012-.23.014-.346A12.2,12.2,0,0,1,6.662,28.406Zm7.1-2.446Zm0,0a12.229,12.229,0,0,0,3.716-.578,12.234,12.234,0,0,1-3.716.578Zm-3.907-.638-.039-.013Z" transform="translate(0 0.001)" stroke="rgba(0,0,0,0)" stroke-miterlimit="10" stroke-width="1" opacity="0.8" fill="url(#linear-gradient-5)"/>
    </g>
  </g>
</svg>
