<svg xmlns="http://www.w3.org/2000/svg" width="160.44" height="39.928" viewBox="0 0 160.44 39.928">
  <g id="mediakos_logo_-_light" data-name="mediakos logo - light" transform="translate(-196.005 -33.005)">
    <g id="Group_241" data-name="Group 241" transform="translate(261.676 47.309)">
      <path id="MediaKos" d="M14.512-24.139h2.106V-8.1H14.424V-20.114l.11.706-3.948,9.076H9.02L5.072-19.187l.11-.926V-8.1H2.988V-24.139H5.095L9.8-13.552Zm10.542,16.2a5.73,5.73,0,0,1-2.713-.6,3.981,3.981,0,0,1-1.715-1.748,6.05,6.05,0,0,1-.59-2.784v-1.29a6.745,6.745,0,0,1,.568-2.9,4.062,4.062,0,0,1,1.649-1.831,5.092,5.092,0,0,1,2.6-.629A4.133,4.133,0,0,1,27.3-19a4.454,4.454,0,0,1,1.549,2.073,8.868,8.868,0,0,1,.535,3.253v.75H21.669v-1.808h5.58a3.852,3.852,0,0,0-.722-2.178,2.031,2.031,0,0,0-1.671-.777,2.436,2.436,0,0,0-1.979.838,3.6,3.6,0,0,0-.7,2.371v1.456a2.981,2.981,0,0,0,.75,2.183,2.854,2.854,0,0,0,2.128.761,3.55,3.55,0,0,0,1.356-.276,3.912,3.912,0,0,0,1.2-.772L29.09-9.649a6.229,6.229,0,0,1-1.908,1.263A5.435,5.435,0,0,1,25.054-7.939Zm13.928-16.2h2.25V-8.1h-2.25ZM36.1-7.906a4.017,4.017,0,0,1-2.145-.546,3.445,3.445,0,0,1-1.351-1.593,6.191,6.191,0,0,1-.463-2.514v-2.525A6.355,6.355,0,0,1,32.6-17.61,3.426,3.426,0,0,1,33.915-19.2a3.817,3.817,0,0,1,2.079-.546,3.427,3.427,0,0,1,1.858.529,3.9,3.9,0,0,1,1.362,1.489l-.232,2.338a2.712,2.712,0,0,0-.265-1.246,1.806,1.806,0,0,0-.766-.788,2.54,2.54,0,0,0-1.219-.27A2.179,2.179,0,0,0,35.006-17a2.856,2.856,0,0,0-.612,1.952v2.492a2.774,2.774,0,0,0,.612,1.924,2.205,2.205,0,0,0,1.726.678,2.458,2.458,0,0,0,1.219-.281,1.858,1.858,0,0,0,.766-.811,2.808,2.808,0,0,0,.265-1.268L39.136-9.9A3.258,3.258,0,0,1,38.017-8.48,3.134,3.134,0,0,1,36.1-7.906ZM44.65-24.139H46.9v2.25H44.65Zm0,4.587H46.9V-8.1H44.65Zm12.13,4.19a2.414,2.414,0,0,0-.6-1.748,2.257,2.257,0,0,0-1.7-.623,4.379,4.379,0,0,0-1.34.21,3.973,3.973,0,0,0-1.163.584l-1.643-1.125a4.294,4.294,0,0,1,1.715-1.219,6.19,6.19,0,0,1,2.365-.436,5.448,5.448,0,0,1,2.437.5,3.484,3.484,0,0,1,1.544,1.456,4.672,4.672,0,0,1,.529,2.3V-8.1H56.78Zm-2.8,7.421a4.846,4.846,0,0,1-3.165-.877,3.276,3.276,0,0,1-1.048-2.663,3.225,3.225,0,0,1,.959-2.547,4.27,4.27,0,0,1,2.9-.849h3.253l.154,1.808h-3.4a1.92,1.92,0,0,0-1.318.391,1.529,1.529,0,0,0-.436,1.2,1.486,1.486,0,0,0,.579,1.29,3.005,3.005,0,0,0,1.759.419,5.084,5.084,0,0,0,1.924-.276.907.907,0,0,0,.634-.86l.232,1.61a2.635,2.635,0,0,1-.733.761,3.193,3.193,0,0,1-1.009.447A5.141,5.141,0,0,1,53.979-7.939Zm10.344-7.2,7.08-9H74.17L63.992-11.766Zm-1.764-9h2.25V-8.1h-2.25Zm4.433,7.477,1.775-1.643L74.843-8.1H72.086ZM81-7.939a5.2,5.2,0,0,1-2.547-.584,3.856,3.856,0,0,1-1.616-1.7,6,6,0,0,1-.557-2.7v-1.864a5.874,5.874,0,0,1,.557-2.663,3.836,3.836,0,0,1,1.616-1.687A5.238,5.238,0,0,1,81-19.717a5.238,5.238,0,0,1,2.547.579,3.836,3.836,0,0,1,1.616,1.687,5.874,5.874,0,0,1,.557,2.663v1.9a5.9,5.9,0,0,1-.557,2.674,3.868,3.868,0,0,1-1.616,1.693A5.2,5.2,0,0,1,81-7.939Zm0-2.139a2.293,2.293,0,0,0,1.825-.739,3.051,3.051,0,0,0,.645-2.073v-1.9a3.007,3.007,0,0,0-.645-2.062A2.311,2.311,0,0,0,81-17.577a2.311,2.311,0,0,0-1.825.728,3.007,3.007,0,0,0-.645,2.062v1.9a3.051,3.051,0,0,0,.645,2.073A2.293,2.293,0,0,0,81-10.079ZM92.961-7.939a8.7,8.7,0,0,1-1.9-.2,6.908,6.908,0,0,1-1.66-.6,6.508,6.508,0,0,1-1.423-.992l1.334-1.643a7.533,7.533,0,0,0,1.842,1.059,5,5,0,0,0,1.808.353,3.863,3.863,0,0,0,2-.414,1.364,1.364,0,0,0,.667-1.241.972.972,0,0,0-.364-.827,2.054,2.054,0,0,0-.9-.369q-.54-.094-1.522-.171-.088,0-.187-.006T92.464-13a.711.711,0,0,1-.088-.006.711.711,0,0,0-.088-.006,8.9,8.9,0,0,1-1.886-.325,2.562,2.562,0,0,1-1.285-.888,2.953,2.953,0,0,1-.513-1.864,3.784,3.784,0,0,1,.5-2.018,3.017,3.017,0,0,1,1.478-1.207,6.517,6.517,0,0,1,2.459-.4,8.5,8.5,0,0,1,1.7.165,7.608,7.608,0,0,1,1.549.491,7.705,7.705,0,0,1,1.423.822L96.357-16.6a7.55,7.55,0,0,0-1.693-.827,5.158,5.158,0,0,0-1.627-.276,3.069,3.069,0,0,0-1.72.391,1.327,1.327,0,0,0-.573,1.174.8.8,0,0,0,.325.695,1.9,1.9,0,0,0,.822.309q.5.077,1.411.132a.838.838,0,0,0,.138.011,1.053,1.053,0,0,1,.149.011h.066a.208.208,0,0,1,.066.011,9.763,9.763,0,0,1,2.046.32,2.759,2.759,0,0,1,1.417.959,3.254,3.254,0,0,1,.573,2.073,3.67,3.67,0,0,1-.529,2.046,3.2,3.2,0,0,1-1.593,1.219A7.536,7.536,0,0,1,92.961-7.939Z" transform="translate(-2.988 24.139)"/>
    </g>
    <g id="plisiiiii" transform="translate(196.005 33.005)">
      <path id="Path_323" data-name="Path 323" d="M4221.606,3844.157a5.555,5.555,0,0,1-.075-1.166c.038-1.28,1.694-9.748,1.807-10.009,0,0,.037-.075.037-.037.037.037,4.705-17.2,12.5-21.866,3.914-2.333,6.21-4.219,11.667-4.14,14.527.527,26.684,32.292,22.657,36.357-.039.075-.489.79-1.092.338,5.5-4.441-11.065-4.064-12.307-4.064C4248.778,3839.567,4226.3,3846.192,4221.606,3844.157Zm1.317-12.948c-.038,1.543-3.65,13.06-1.919,13.926,2.258,1.129,14.527-.827,18.932-1.731,3.2-.678,13.662-2.936,16.6-2.9,2.409.038,11.028-.49,12.307,1.807-1.205,3.2-15.28,1.543-19.12,1.468l-9-.113a1.306,1.306,0,0,0-.79.226v.527c4.218,1.769,11.177.226,15.619.9,2.558.413,12.306,1.241,14.264-.527,8.808-8.318-9.785-38.462-22.994-38.841-12.612-.19-21.157,14.673-23.9,25.253Z" transform="translate(-4220.535 -3805.958)" fill="#17cf76" fill-rule="evenodd"/>
    </g>
    <path id="Path_324" data-name="Path 324" d="M278.775,207.1l-5.241-3.072V190.3l12.288,6.865L298.11,190.3v14.64l-4.156,2.169v-7.771l-7.41,3.976-7.771-3.976Z" transform="translate(-64.299 -145.714)" fill="#17cf76"/>
  </g>
</svg>
