<svg xmlns="http://www.w3.org/2000/svg" width="183.625" height="33.321" viewBox="0 0 183.625 33.321">
  <g id="Group_11060" data-name="Group 11060" transform="translate(-80 -40)">
    <g id="Group_148" data-name="Group 148" transform="translate(134.169 50.13)">
      <path id="Path_2309" data-name="Path 2309" d="M273.423,393.19l-5.556,12.732h-2.324L260,393.19h2.561l4.231,9.819,4.284-9.819Z" transform="translate(-260 -393.026)" fill="#219268"/>
      <path id="Path_2310" data-name="Path 2310" d="M287.582,403.933v1.989H278V393.19h9.33v1.98h-6.922v3.314h6.154V400.4h-6.154v3.51Z" transform="translate(-263.272 -393.026)" fill="#219268"/>
      <path id="Path_2311" data-name="Path 2311" d="M304.247,393.19v12.732H302.3l-7.017-8.629v8.624H292.93V393.19h1.948l7.021,8.617V393.19Z" transform="translate(-265.984 -393.026)" fill="#219268"/>
      <path id="Path_2312" data-name="Path 2312" d="M313.162,395.186H308.94v-2h10.8v2h-4.206v10.736h-2.373Z" transform="translate(-268.894 -393.026)" fill="#219268"/>
      <path id="Path_2313" data-name="Path 2313" d="M323.9,400.4V393.22h2.365v7.094c0,2.618,1.186,3.748,3.273,3.748s3.216-1.142,3.216-3.748V393.22h2.332V400.4c0,3.707-2.094,5.728-5.564,5.728S323.9,404.086,323.9,400.4Z" transform="translate(-271.613 -393.032)" fill="#219268"/>
      <path id="Path_2314" data-name="Path 2314" d="M349.9,405.922l-2.594-3.731a3.275,3.275,0,0,1-.491,0h-2.88V405.9H341.57V393.19h5.265c3.346,0,5.426,1.714,5.426,4.525a4.094,4.094,0,0,1-2.717,4.017l2.929,4.189Zm-3.2-10.736h-2.766v5.082H346.7c2.078,0,3.15-.952,3.15-2.553S348.779,395.186,346.7,395.186Z" transform="translate(-274.824 -393.026)" fill="#219268"/>
      <path id="Path_2315" data-name="Path 2315" d="M367.38,403.933v1.989h-9.55V393.19h9.3v1.98h-6.931v3.314h6.145V400.4h-6.145v3.51Z" transform="translate(-277.78 -393.026)" fill="#219268"/>
      <path id="Path_2316" data-name="Path 2316" d="M377.106,400.587l-2.021,2.078v3.273H372.72V393.19h2.361v6.546l6.293-6.546h2.659l-5.351,5.728,5.679,7.037h-2.766Z" transform="translate(-280.486 -393.026)" fill="#219268"/>
      <path id="Path_2317" data-name="Path 2317" d="M387.26,399.546a6.535,6.535,0,1,1,2.021,4.745A6.521,6.521,0,0,1,387.26,399.546Zm11.329,0a4.474,4.474,0,1,0-4.484,4.474,4.345,4.345,0,0,0,4.484-4.189Z" transform="translate(-283.128 -392.991)" fill="#219268"/>
      <path id="Path_2318" data-name="Path 2318" d="M405.78,404.537l.818-1.833a7.1,7.1,0,0,0,4.2,1.4c1.989,0,2.823-.712,2.823-1.637,0-2.733-7.569-.941-7.569-5.67,0-2.046,1.637-3.8,5.13-3.8a7.9,7.9,0,0,1,4.238,1.138l-.744,1.833a7.168,7.168,0,0,0-3.51-1c-1.964,0-2.766.762-2.766,1.727,0,2.708,7.552.952,7.552,5.617,0,2.037-1.637,3.78-5.155,3.78a8.187,8.187,0,0,1-5.016-1.563Z" transform="translate(-286.493 -392.991)" fill="#219268"/>
    </g>
    <path id="Path_24" data-name="Path 24" d="M239.835,381.125h0v-.131h-7.413a.712.712,0,0,0-.532.262l-12.438,21.438a.6.6,0,0,0,.27.819.589.589,0,0,0,.819-.262l12.168-21.169h5.949l-17.593,30.274L202.547,380.61h-8.092a.63.63,0,0,0-.655.6v.057c0,.131,0,.27.139.27l18.52,32.125a.646.646,0,0,0,.524.27h3.969c.4,0,.666-.27.532-.666a.571.571,0,0,0-.532-.532h-3.969l-17.855-31.216h6.6l18.395,31.912a.667.667,0,0,0,.524.262h0a.666.666,0,0,0,.532-.262Z" transform="translate(-113.8 -340.609)" fill="#219268"/>
  </g>
</svg>
