<svg id="camera" xmlns="http://www.w3.org/2000/svg" width="77.784" height="65.326" viewBox="0 0 77.784 65.326">
  <path id="Path_2149" data-name="Path 2149" d="M69.428,50.115H54.208l-1.48-4.441A6.828,6.828,0,0,0,46.241,41h-14.7a6.828,6.828,0,0,0-6.486,4.675l-1.48,4.441H19.9v-3.8A5.323,5.323,0,0,0,14.584,41H11.546a5.323,5.323,0,0,0-5.317,5.317v4.073A8.37,8.37,0,0,0,0,58.471v39.5a8.365,8.365,0,0,0,8.356,8.356H69.428a8.365,8.365,0,0,0,8.356-8.356v-39.5A8.365,8.365,0,0,0,69.428,50.115Zm-58.642-3.8a.76.76,0,0,1,.76-.76h3.038a.76.76,0,0,1,.76.76v3.8H10.786Zm62.44,51.653a3.8,3.8,0,0,1-3.8,3.8H8.356a3.8,3.8,0,0,1-3.8-3.8v-39.5a3.8,3.8,0,0,1,3.8-3.8H25.219a2.279,2.279,0,0,0,2.162-1.558l2-6a2.276,2.276,0,0,1,2.162-1.558h14.7A2.276,2.276,0,0,1,48.4,47.116l2,6a2.279,2.279,0,0,0,2.162,1.558H69.428a3.8,3.8,0,0,1,3.8,3.8Z" transform="translate(0 -41)" fill="#dbbb73"/>
  <ellipse id="Ellipse_221" data-name="Ellipse 221" cx="2.279" cy="2.279" rx="2.279" ry="2.279" transform="translate(63.959 18.231)" fill="#dbbb73"/>
  <path id="Path_2150" data-name="Path 2150" d="M67.836,161H63.279a2.279,2.279,0,0,0,0,4.558h4.558a2.279,2.279,0,1,0,0-4.558Z" transform="translate(-51.733 -142.769)" fill="#dbbb73"/>
  <g id="Group_12337" data-name="Group 12337" transform="translate(18.383 15.192)">
    <path id="Path_2151" data-name="Path 2151" d="M141.509,182.019a20.509,20.509,0,1,1,20.509-20.509A20.533,20.533,0,0,1,141.509,182.019Zm0-36.461a15.952,15.952,0,1,0,15.952,15.952A15.97,15.97,0,0,0,141.509,145.558Z" transform="translate(-121 -141)" fill="#dbbb73"/>
  </g>
  <g id="Group_12338" data-name="Group 12338" transform="translate(27.498 24.307)">
    <path id="Path_2152" data-name="Path 2152" d="M192.394,223.788a11.394,11.394,0,1,1,11.394-11.394A11.407,11.407,0,0,1,192.394,223.788Zm0-18.231a6.836,6.836,0,1,0,6.836,6.836A6.844,6.844,0,0,0,192.394,205.558Z" transform="translate(-181 -201)" fill="#dbbb73"/>
  </g>
</svg>
