<svg xmlns="http://www.w3.org/2000/svg" width="89.549" height="57.567" viewBox="0 0 89.549 57.567">
  <g id="video-camera" opacity="0.8">
    <g id="Group_12340" data-name="Group 12340" transform="translate(0 0)">
      <g id="Group_12339" data-name="Group 12339">
        <path id="Path_2153" data-name="Path 2153" d="M88.033,92.206a3.2,3.2,0,0,0-3.112-.141l-20.958,10.48V94.928a9.6,9.6,0,0,0-9.595-9.595H9.595A9.6,9.6,0,0,0,0,94.928v38.378A9.6,9.6,0,0,0,9.595,142.9H54.369a9.6,9.6,0,0,0,9.595-9.595v-7.618l20.958,10.5a3.2,3.2,0,0,0,4.628-2.878V94.928A3.2,3.2,0,0,0,88.033,92.206Zm-30.466,41.1a3.2,3.2,0,0,1-3.2,3.2H9.595a3.2,3.2,0,0,1-3.2-3.2V94.928a3.2,3.2,0,0,1,3.2-3.2H54.369a3.2,3.2,0,0,1,3.2,3.2v38.378Zm25.585-5.175-19.189-9.595V109.7L83.153,100.1Z" transform="translate(0 -85.333)" fill="#4642b7"/>
      </g>
    </g>
    <g id="Group_12342" data-name="Group 12342" transform="translate(19.189 15.991)">
      <g id="Group_12341" data-name="Group 12341">
        <path id="Path_2154" data-name="Path 2154" d="M115.193,170.667a12.793,12.793,0,1,0,12.793,12.793A12.793,12.793,0,0,0,115.193,170.667Zm0,19.189a6.4,6.4,0,1,1,6.4-6.4A6.4,6.4,0,0,1,115.193,189.856Z" transform="translate(-102.4 -170.667)" fill="#4642b7"/>
      </g>
    </g>
  </g>
</svg>
