<svg xmlns="http://www.w3.org/2000/svg" width="72.822" height="72.821" viewBox="0 0 72.822 72.821">
  <path id="sketch" d="M53.628,36.392,72.2,17.8a2.133,2.133,0,0,0,0-3.02L57.969.627a2.133,2.133,0,0,0-3.013,0L36.411,19.175,20.882,3.646a2.132,2.132,0,0,0-1.141-.593L2.5.036A2.133,2.133,0,0,0,.033,2.505L3.052,19.743a2.132,2.132,0,0,0,.594,1.141L19.183,36.4.626,54.96a2.133,2.133,0,0,0,0,3.017L14.847,72.2a2.133,2.133,0,0,0,1.508.625h0a2.133,2.133,0,0,0,1.509-.626L36.421,53.62,55.024,72.2a2.134,2.134,0,0,0,1.508.624h0a2.133,2.133,0,0,0,1.509-.629L72.2,57.971a2.133,2.133,0,0,0,0-3.013ZM43.8,17.818l4.526,4.526a2.133,2.133,0,1,0,3.017-3.017L46.82,14.8l4.094-4.094,4.526,4.526a2.133,2.133,0,1,0,3.017-3.017L53.931,7.689l2.537-2.537L67.669,16.3,50.611,33.375,39.428,22.192ZM14.962,6.548,6.546,14.965,4.759,4.763Zm1.392,61.123-11.2-11.2,2.533-2.533,4.526,4.526a2.133,2.133,0,0,0,3.017-3.017L10.7,50.918,14.8,46.824l4.526,4.526a2.133,2.133,0,0,0,3.017-3.017l-4.526-4.526L22.2,39.419,33.4,50.6Zm40.173,0L8.171,19.374l4.091-4.091L60.579,63.6Zm7.061-7.1L15.279,12.266l4.094-4.094,48.3,48.3Z" transform="translate(0 -0.004)" fill="#db777e"/>
</svg>
