<svg xmlns="http://www.w3.org/2000/svg" width="104.999" height="104.999" viewBox="0 0 104.999 104.999">
  <g id="Group_13192" data-name="Group 13192" transform="translate(0 -5647.713)">
    <g id="planet" transform="translate(0 5647.713)">
      <path id="Path_2964" data-name="Path 2964" d="M12.082,332.164l-2.641-6.282H8.387c-6.692,11.892-9.658,22.473-7.881,29.5l7.156-7.063c-.749-3.528.652-8.808,3.811-15.123Z" transform="translate(0 -259.051)" fill="#ffe02f"/>
      <path id="Path_2965" data-name="Path 2965" d="M10.337,352.505l4.244-4.189c-.749-3.528.652-8.808,3.811-15.123L19,332.164l-2.641-6.282H15.307a87.947,87.947,0,0,0-4.853,9.955c-2.229,6.968-2.392,12.8-.116,16.668Z" transform="translate(-6.919 -259.051)" fill="#fbc700"/>
      <path id="Path_2966" data-name="Path 2966" d="M325.883,8.387V9.38l6.1,2.606,1.215-.512c6.839-3.421,12.464-4.781,15.964-3.58l7.2-7.1C349.356-1.544,338.338,1.378,325.883,8.387Z" transform="translate(-259.052 0)" fill="#ffe02f"/>
      <path id="Path_2967" data-name="Path 2967" d="M333.193,18.435c6.839-3.421,12.464-4.781,15.964-3.58l4.052-4c-3.862-2.762-10.01-2.72-17.453-.328a88.118,88.118,0,0,0-9.874,4.821v.993l6.1,2.606Z" transform="translate(-259.051 -6.961)" fill="#fbc700"/>
      <path id="Path_2968" data-name="Path 2968" d="M114.9,54.672,93.229,38.94l-.867-3.509q-1.023-.386-2.059-.723l0,0a48.431,48.431,0,0,0-6.34-1.594v0L76.083,35.43,33.344,66.51l-3.689,8.768,0,0A45.783,45.783,0,0,0,30.3,87.026h0l2.29.788,15.634,24.014-.717,3.612c.637.5,1.284.978,1.944,1.438l6.379.343,14.532-10.525L92.781,86.6l22.49-30.9Z" transform="translate(-23.472 -26.32)" fill="#ff9838"/>
      <path id="Path_2969" data-name="Path 2969" d="M30.306,182.382l2.29.788,15.634,24.014-.717,3.612c.637.5,1.284.978,1.944,1.438l6.379.343,10.233-7.411a50.525,50.525,0,0,1-20.623-52.1l-12.1,8.8-3.689,8.768,0,0a45.783,45.783,0,0,0,.651,11.747Z" transform="translate(-23.472 -121.677)" fill="#ff8706"/>
      <path id="Path_2970" data-name="Path 2970" d="M292.406,227.129,307.233,211l1.982-3.613h0a46.188,46.188,0,0,0-1.817-21.3l-2.4.356-20.44,26.548-19.392,17.032Z" transform="translate(-210.785 -147.923)" fill="#ff9838"/>
      <path id="Path_2971" data-name="Path 2971" d="M78.571,40.163a23.392,23.392,0,0,0,5.891-9.891C56.942,25.309,32.117,46.1,30.149,72.437l6.766-6.766a23.283,23.283,0,0,1,14.861-6.787A23.284,23.284,0,0,0,66.636,52.1Z" transform="translate(-23.966 -23.479)" fill="#ffaa5b"/>
      <path id="Path_2972" data-name="Path 2972" d="M45.076,80.432a50.212,50.212,0,0,1,10.2-25.661A46.834,46.834,0,0,0,30.149,92.5l6.766-6.766A23.418,23.418,0,0,1,45.076,80.432Z" transform="translate(-23.966 -43.539)" fill="#ff9838"/>
      <path id="Path_2973" data-name="Path 2973" d="M117.047,61.3a46.532,46.532,0,0,0-3.005-3.847l-1.843-.468-7.57-7.007-.354-1.05q-1.76-1.147-3.638-2.14l0,0a46.008,46.008,0,0,0-5.252-2.363l-.206,1.238a25.249,25.249,0,0,1-7.052,13.7L75.011,72.475A25.248,25.248,0,0,1,58.584,79.83a25.25,25.25,0,0,0-16.427,7.355l-8.833,8.833a48.421,48.421,0,0,0,1.55,6.131l0-.005q.649,2,1.485,3.951h.968l6.417,9.831.026,2.059a46.879,46.879,0,0,0,6.757,6.447L66.8,108.164a18.742,18.742,0,0,0,4.857-8.424l1.327-4.978a18.744,18.744,0,0,1,4.857-8.424l9.532-9.532a18.743,18.743,0,0,1,8.219-4.8l18.531-5.167,1.721-.507,1.762-3.51Z" transform="translate(-26.49 -35.314)" fill="#ffaa5b"/>
      <path id="Path_2974" data-name="Path 2974" d="M34.877,251.723q.649,2,1.485,3.951h.968l6.417,9.831.026,2.059a46.879,46.879,0,0,0,6.757,6.447L62.05,262.491a50.316,50.316,0,0,1-14.382-29.9,25.244,25.244,0,0,0-5.511,4.172L33.324,245.6a48.421,48.421,0,0,0,1.55,6.131Z" transform="translate(-26.49 -184.892)" fill="#ff9838"/>
      <path id="Path_2975" data-name="Path 2975" d="M69.894,278.534a16.587,16.587,0,0,0,4.242-7.249,5.389,5.389,0,0,0-6.644-6.644,16.587,16.587,0,0,0-7.249,4.242l-12.1,12.1q.73,1.7,1.6,3.36l0,0a46.3,46.3,0,0,0,5.812,8.526Z" transform="translate(-38.267 -210.205)" fill="#ffba7e"/>
      <path id="Path_2976" data-name="Path 2976" d="M49.738,297.034a46.3,46.3,0,0,0,5.812,8.526l12.3-12.3a50.278,50.278,0,0,1-6.3-12.869,16.605,16.605,0,0,0-1.311,1.176l-12.1,12.1q.73,1.7,1.6,3.36Z" transform="translate(-38.267 -222.889)" fill="#ffaa5b"/>
      <path id="Path_2977" data-name="Path 2977" d="M371.174,66.374l-1.906,5.736a3.591,3.591,0,0,0,4.268,4.618l7.406-1.828A46.723,46.723,0,0,0,371.174,66.374Z" transform="translate(-293.39 -52.762)" fill="#ffba7e"/>
      <path id="Path_2978" data-name="Path 2978" d="M231.988,304.329a18.4,18.4,0,0,1-12.348,5.378l-9.837.356-3.777.662-19.941,14.789v1.6c28.719,9.308,56.21-10.5,60.268-37.149Z" transform="translate(-147.923 -230.499)" fill="#ffaa5b"/>
      <path id="Path_2979" data-name="Path 2979" d="M219.252,430.269a50.256,50.256,0,0,1-22.559-5.314l-10.606,7.866v1.6a45.609,45.609,0,0,0,38.308-4.413A50.988,50.988,0,0,1,219.252,430.269Z" transform="translate(-147.925 -337.807)" fill="#ff9838"/>
      <path id="Path_2980" data-name="Path 2980" d="M96.849,2.068l-7.24,7.146a6.012,6.012,0,0,1,3.481,1.613c6.647,6.647-6.554,30.625-29.485,53.556S16.7,100.515,10.048,93.868a6.5,6.5,0,0,1-1.705-4.446L1.088,96.583a11.748,11.748,0,0,0,3.168,6.667c10.232,10.232,40.513-3.46,67.634-30.581s40.813-57.4,30.582-67.634a11.319,11.319,0,0,0-5.623-2.967Z" transform="translate(-0.865 -1.644)" fill="#ffe02f"/>
      <path id="Path_2981" data-name="Path 2981" d="M106.379,17.461a9.348,9.348,0,0,0-2.194-1.619l-4.378,4.321a6.012,6.012,0,0,1,3.481,1.613C109.935,28.424,96.734,52.4,73.8,75.333s-46.909,36.132-53.556,29.485a6.5,6.5,0,0,1-1.705-4.446l-4.624,4.564a9.548,9.548,0,0,0,2,2.983c9.347,9.347,37.173-3.326,62.153-28.305s37.652-52.806,28.305-62.152Z" transform="translate(-11.064 -12.593)" fill="#fbc700"/>
    </g>
  </g>
</svg>
