<svg xmlns="http://www.w3.org/2000/svg" xmlns:xlink="http://www.w3.org/1999/xlink" width="123.828" height="106.299" viewBox="0 0 123.828 106.299">
  <defs>
    <linearGradient id="linear-gradient" y1="0.5" x2="1" y2="0.5" gradientUnits="objectBoundingBox">
      <stop offset="0" stop-color="#feca9c"/>
      <stop offset="0.521" stop-color="#fd8087"/>
      <stop offset="1" stop-color="#f46700"/>
    </linearGradient>
    <linearGradient id="linear-gradient-2" x1="-3.187" x2="5.289" xlink:href="#linear-gradient"/>
    <linearGradient id="linear-gradient-3" x1="-0.606" x2="0.859" xlink:href="#linear-gradient"/>
    <linearGradient id="linear-gradient-4" x1="-0.027" y1="0.5" x2="1.046" y2="0.5" gradientUnits="objectBoundingBox">
      <stop offset="0" stop-color="#fef056"/>
      <stop offset="0.521" stop-color="#f4d902"/>
      <stop offset="1" stop-color="#fe9738"/>
    </linearGradient>
    <linearGradient id="linear-gradient-5" x1="-0.56" y1="0.5" x2="0.697" y2="0.5" xlink:href="#linear-gradient-4"/>
    <linearGradient id="linear-gradient-6" x1="-0.928" y1="0.5" x2="1.841" y2="0.5" xlink:href="#linear-gradient-4"/>
  </defs>
  <g id="saturn" transform="translate(0 -36.098)">
    <circle id="Ellipse_329" data-name="Ellipse 329" cx="53.15" cy="53.15" r="53.15" transform="translate(8.764 36.098)" fill="url(#linear-gradient)"/>
    <g id="Group_12530" data-name="Group 12530" transform="translate(17.29 36.098)">
      <path id="Path_2982" data-name="Path 2982" d="M78.2,174.431q2.641-.775,5.307-1.67a5.458,5.458,0,0,0,3.406-6.98v0a5.453,5.453,0,0,0-6.878-3.371q-2.463.828-4.9,1.545A5.459,5.459,0,0,0,78.2,174.431Z" transform="translate(-71.211 -131.524)" fill="url(#linear-gradient-2)"/>
      <path id="Path_2983" data-name="Path 2983" d="M131.784,36.1c-1.638,0-3.258.078-4.858.223,0,0,0,0,0,0a7.509,7.509,0,0,1,3.6,13.733,136.051,136.051,0,0,1-11.838,7.1,5.763,5.763,0,0,0-2.437,7.6,5.216,5.216,0,0,0,7.13,2.276A133.006,133.006,0,0,0,149.33,49.3a5.829,5.829,0,0,1,7.716-.068l.109.1a5.815,5.815,0,0,1,.377,8.453c-.76.794-1.473,1.52-1.971,1.99a109.759,109.759,0,0,1-17.59,13.3,5.46,5.46,0,1,0,5.675,9.329,120.975,120.975,0,0,0,19.687-14.952,4.932,4.932,0,0,1,7.962,1.727l.04.1a4.93,4.93,0,0,1-.941,5.19c-1.5,1.633-3.428,3.675-4.422,4.61-8.637,8.123-20.33,15.724-33.6,21.777q-3.764,1.716-7.529,3.192a5.555,5.555,0,0,0-3.313,6.9,5.463,5.463,0,0,0,7.155,3.323q4.113-1.606,8.222-3.478c15.15-6.91,28.5-15.793,38.177-25.332q.131,1.873.133,3.78,0,1.874-.129,3.716c-7.527,7.686-17.868,15.011-29.711,20.988-13.83,6.976-27.924,11.217-39.771,11.97-.192.012-.384.024-.575.034A37.849,37.849,0,0,1,92.274,124.8a53.334,53.334,0,0,0,15.632,11.945,90.437,90.437,0,0,0,11.633-1.8,132.264,132.264,0,0,0,30.777-11.2l.218-.11a4.3,4.3,0,0,1,4.621,7.208,52.892,52.892,0,0,1-28.23,11.335c1.6.145,3.22.223,4.858.223a53.15,53.15,0,0,0,0-106.3Z" transform="translate(-87.16 -36.098)" fill="url(#linear-gradient-3)"/>
    </g>
    <path id="Path_2984" data-name="Path 2984" d="M121.893,92.843c-4.081-8.093-13.9-12.32-27.762-12.011a53.476,53.476,0,0,1,11.72,12.361c3.069,1.022,5.237,2.579,6.252,4.589s.978,4.671-.017,7.743a36.843,36.843,0,0,1-6.837,11.5c-.121.146-.243.291-.367.437-7.643,9.086-19.429,17.9-33.261,24.885S43.7,153.565,31.85,154.318c-.192.012-.384.024-.575.034a36.772,36.772,0,0,1-13.3-1.331c-3.069-1.022-5.237-2.579-6.252-4.589s-.978-4.669.017-7.74A53.044,53.044,0,0,1,8.772,123.9c-8.491,10.97-10.924,21.381-6.837,29.476C5.878,161.191,15.172,165.4,28.3,165.4c.461,0,.927,0,1.4-.017.714-.015,1.44-.044,2.175-.083a87.6,87.6,0,0,0,13.912-1.964,132.264,132.264,0,0,0,30.777-11.2,132.37,132.37,0,0,0,27.293-18.1,87.461,87.461,0,0,0,9.848-10.025q.7-.849,1.352-1.692c5.8-7.493,8.772-14.723,8.772-21.136a18.307,18.307,0,0,0-1.935-8.34Z" transform="translate(0 -33.861)" fill="url(#linear-gradient-4)"/>
    <path id="Path_2985" data-name="Path 2985" d="M197.383,101.183c0,6.412-2.972,13.643-8.772,21.136q-.648.845-1.352,1.692a87.457,87.457,0,0,1-9.848,10.025,132.369,132.369,0,0,1-27.293,18.1,132.262,132.262,0,0,1-30.777,11.2,87.6,87.6,0,0,1-13.912,1.964c-.736.039-1.462.068-2.175.083-.473.012-.94.017-1.4.017q-2.444,0-4.71-.194,2.535-.189,5.174-.556c2.384-.33,4.827-.77,7.308-1.314a132.262,132.262,0,0,0,30.777-11.2,132.37,132.37,0,0,0,27.293-18.1,87.458,87.458,0,0,0,9.848-10.025c4.47-5.41,7.486-10.705,9-15.68a24.605,24.605,0,0,0,1.129-7.148,18.307,18.307,0,0,0-1.935-8.34c-2.926-5.8-8.8-9.615-17-11.2q-.514-.415-1.042-.816c13.864-.308,23.68,3.919,27.762,12.011a18.306,18.306,0,0,1,1.935,8.34Z" transform="translate(-73.556 -33.861)" fill="url(#linear-gradient-5)"/>
    <path id="Path_2986" data-name="Path 2986" d="M28.776,287.375c-3.069-1.022-5.237-2.578-6.25-4.589s-.978-4.669.017-7.74a52.444,52.444,0,0,1-2.055-7.692,53.374,53.374,0,0,1-.915-9.1,52.263,52.263,0,0,0-5.309,8.265q.363,2.116.893,4.172a23.8,23.8,0,0,1,.586,7.826,7.977,7.977,0,0,0,.708,4.272c1.67,3.307,6.454,5.38,13.235,5.883a49.025,49.025,0,0,0,6.48.029v0A29.533,29.533,0,0,1,28.776,287.375Z" transform="translate(-10.802 -168.214)" fill="url(#linear-gradient-6)"/>
  </g>
</svg>
