<svg id="acceleration" xmlns="http://www.w3.org/2000/svg" width="82.854" height="66.348" viewBox="0 0 82.854 66.348">
  <path id="Path_2139" data-name="Path 2139" d="M82.855,99.908v-.032a3.571,3.571,0,0,0-1.19-2.626l-8.175-7.3a2.428,2.428,0,1,0-3.234,3.621l4.378,3.908H32.92a16.58,16.58,0,1,0,0,4.855H74.634l-4.377,3.908a2.427,2.427,0,1,0,3.233,3.621l8.175-7.3a3.57,3.57,0,0,0,1.19-2.626v-.031h0ZM16.549,111.633A11.725,11.725,0,1,1,27.99,97.481H20.2a2.427,2.427,0,0,0,0,4.855H27.99a11.722,11.722,0,0,1-11.442,9.3Zm0,0" transform="translate(0 -69.843)" fill="#fff"/>
  <path id="Path_2140" data-name="Path 2140" d="M300.938,52.42a2.427,2.427,0,0,0,2.427,2.427h26.407a2.427,2.427,0,0,0,0-4.855H303.365A2.427,2.427,0,0,0,300.938,52.42Zm0,0" transform="translate(-252.239 -41.902)" fill="#fff"/>
  <path id="Path_2141" data-name="Path 2141" d="M194.79,4.855h20.473a2.427,2.427,0,1,0,0-4.855H194.79a2.427,2.427,0,1,0,0,4.855Zm0,0" transform="translate(-161.234)" fill="#fff"/>
  <path id="Path_2142" data-name="Path 2142" d="M371.029,4.855h3.786a2.427,2.427,0,0,0,0-4.855h-3.786a2.427,2.427,0,1,0,0,4.855Zm0,0" transform="translate(-308.953)" fill="#fff"/>
  <path id="Path_2143" data-name="Path 2143" d="M201.743,78.984a2.427,2.427,0,1,0,0,4.855h3.786a2.427,2.427,0,0,0,0-4.855Zm0,0" transform="translate(-167.062 -66.203)" fill="#fff"/>
  <path id="Path_2144" data-name="Path 2144" d="M225.565,233.816a2.427,2.427,0,1,0,0-4.855h-3.786a2.427,2.427,0,0,0,0,4.855Zm0,0" transform="translate(-183.855 -191.909)" fill="#fff"/>
  <path id="Path_2145" data-name="Path 2145" d="M108.676,351H82.322a2.427,2.427,0,1,0,0,4.855h26.354a2.427,2.427,0,1,0,0-4.855Zm0,0" transform="translate(-66.966 -294.203)" fill="#fff"/>
  <path id="Path_2146" data-name="Path 2146" d="M248.036,301.012H227.563a2.427,2.427,0,1,0,0,4.855h20.473a2.427,2.427,0,0,0,0-4.855Zm0,0" transform="translate(-188.703 -252.301)" fill="#fff"/>
  <path id="Path_2147" data-name="Path 2147" d="M158.229,305.867a2.427,2.427,0,0,0,0-4.855h-3.786a2.427,2.427,0,1,0,0,4.855Zm0,0" transform="translate(-127.416 -252.301)" fill="#fff"/>
  <path id="Path_2148" data-name="Path 2148" d="M327.514,380h-3.786a2.427,2.427,0,1,0,0,4.855h3.786a2.427,2.427,0,1,0,0-4.855Zm0,0" transform="translate(-269.306 -318.507)" fill="#fff"/>
</svg>
