<svg id="controller" xmlns="http://www.w3.org/2000/svg" width="74.203" height="74.203" viewBox="0 0 74.203 74.203">
  <g id="Group_12452" data-name="Group 12452" transform="translate(9.679 29.843)">
    <g id="Group_12451" data-name="Group 12451">
      <path id="Path_2478" data-name="Path 2478" d="M72.624,213.173l3.128-3.128a2.42,2.42,0,1,0-3.422-3.422l-4.839,4.839a2.42,2.42,0,0,0,0,3.422l4.839,4.839a2.42,2.42,0,0,0,3.422-3.422Z" transform="translate(-66.782 -205.915)" fill="#fff"/>
    </g>
  </g>
  <g id="Group_12454" data-name="Group 12454" transform="translate(54.845 29.843)">
    <g id="Group_12453" data-name="Group 12453">
      <path id="Path_2479" data-name="Path 2479" d="M387.4,211.462l-4.839-4.839a2.42,2.42,0,0,0-3.422,3.422l3.128,3.128-3.128,3.128a2.42,2.42,0,1,0,3.422,3.422l4.839-4.839A2.42,2.42,0,0,0,387.4,211.462Z" transform="translate(-378.435 -205.915)" fill="#fff"/>
    </g>
  </g>
  <g id="Group_12456" data-name="Group 12456" transform="translate(0 0)">
    <g id="Group_12455" data-name="Group 12455">
      <path id="Path_2480" data-name="Path 2480" d="M66.944,20.164h-12.9V7.259A7.267,7.267,0,0,0,46.78,0H27.423a7.267,7.267,0,0,0-7.259,7.259v12.9H7.259A7.267,7.267,0,0,0,0,27.423V46.78a7.267,7.267,0,0,0,7.259,7.259h12.9v12.9A7.267,7.267,0,0,0,27.423,74.2H46.78a7.267,7.267,0,0,0,7.259-7.259v-12.9h12.9A7.267,7.267,0,0,0,74.2,46.78V27.423A7.267,7.267,0,0,0,66.944,20.164Zm2.42,26.616a2.422,2.422,0,0,1-2.42,2.42H51.619a2.42,2.42,0,0,0-2.42,2.42V66.944a2.422,2.422,0,0,1-2.42,2.42H27.423A2.422,2.422,0,0,1,25,66.944V51.619a2.42,2.42,0,0,0-2.42-2.42H7.259a2.422,2.422,0,0,1-2.42-2.42V27.423A2.422,2.422,0,0,1,7.259,25H22.583A2.42,2.42,0,0,0,25,22.583V7.259a2.422,2.422,0,0,1,2.42-2.42H46.78a2.422,2.422,0,0,1,2.42,2.42V22.583A2.42,2.42,0,0,0,51.619,25H66.944a2.422,2.422,0,0,1,2.42,2.42V46.78Z" transform="translate(0 0)" fill="#fff"/>
    </g>
  </g>
  <g id="Group_12458" data-name="Group 12458" transform="translate(29.842 55.652)">
    <g id="Group_12457" data-name="Group 12457">
      <path id="Path_2481" data-name="Path 2481" d="M219.722,384.709a2.42,2.42,0,0,0-3.422,0l-3.128,3.128-3.128-3.128a2.42,2.42,0,0,0-3.422,3.422l4.839,4.839a2.419,2.419,0,0,0,3.422,0l4.839-4.839A2.42,2.42,0,0,0,219.722,384.709Z" transform="translate(-205.913 -384.001)" fill="#fff"/>
    </g>
  </g>
  <g id="Group_12460" data-name="Group 12460" transform="translate(29.842 9.679)">
    <g id="Group_12459" data-name="Group 12459">
      <path id="Path_2482" data-name="Path 2482" d="M219.722,72.332l-4.839-4.839a2.42,2.42,0,0,0-3.422,0l-4.839,4.839a2.42,2.42,0,0,0,3.422,3.422l3.128-3.128,3.128,3.128a2.42,2.42,0,0,0,3.422-3.422Z" transform="translate(-205.913 -66.784)" fill="#fff"/>
    </g>
  </g>
  <g id="Group_12462" data-name="Group 12462" transform="translate(29.842 29.842)">
    <g id="Group_12461" data-name="Group 12461">
      <path id="Path_2483" data-name="Path 2483" d="M213.172,205.913a7.259,7.259,0,1,0,7.259,7.259A7.267,7.267,0,0,0,213.172,205.913Zm0,9.679a2.42,2.42,0,1,1,2.42-2.42A2.422,2.422,0,0,1,213.172,215.592Z" transform="translate(-205.913 -205.913)" fill="#fff"/>
    </g>
  </g>
</svg>
