<svg id="globe2" xmlns="http://www.w3.org/2000/svg" width="30.993" height="30.993" viewBox="0 0 30.993 30.993">
  <path id="Path_12847" data-name="Path 12847" d="M1.972,14.528H6.8A25.956,25.956,0,0,1,7.642,8.7,17.674,17.674,0,0,1,4.611,7.409a13.49,13.49,0,0,0-2.639,7.119ZM5.908,5.906a16.141,16.141,0,0,0,2.321.95A17.134,17.134,0,0,1,9.16,4.768a12.978,12.978,0,0,1,1.156-1.807A13.578,13.578,0,0,0,5.91,5.908ZM15.5,0a15.5,15.5,0,1,0,15.5,15.5A15.5,15.5,0,0,0,15.5,0Zm-.969,2.086c-1.3.4-2.586,1.588-3.655,3.593a14.793,14.793,0,0,0-.765,1.689,24.659,24.659,0,0,0,4.421.556Zm0,7.776a26.189,26.189,0,0,1-5.019-.643,23.911,23.911,0,0,0-.775,5.309h5.794Zm1.937,4.666V9.862a26.189,26.189,0,0,0,5.019-.643,23.834,23.834,0,0,1,.775,5.309Zm-1.937,1.937H8.736a23.737,23.737,0,0,0,.773,5.309,26.337,26.337,0,0,1,5.019-.641Zm1.937,4.666V16.465h5.792a23.91,23.91,0,0,1-.773,5.309,26.336,26.336,0,0,0-5.019-.641Zm-1.937,1.937a24.571,24.571,0,0,0-4.421.556,15.1,15.1,0,0,0,.765,1.689,6.829,6.829,0,0,0,3.655,3.593V23.07Zm-4.209,4.965a12.969,12.969,0,0,1-1.156-1.807,17.157,17.157,0,0,1-.932-2.088,16.186,16.186,0,0,0-2.321.95,13.578,13.578,0,0,0,4.409,2.944ZM4.61,23.584a17.542,17.542,0,0,1,3.031-1.292A25.879,25.879,0,0,1,6.8,16.465H1.972A13.49,13.49,0,0,0,4.61,23.584Zm16.064,4.449a13.578,13.578,0,0,0,4.407-2.946,16.181,16.181,0,0,0-2.318-.95,17.161,17.161,0,0,1-.932,2.088,12.955,12.955,0,0,1-1.156,1.807Zm.213-4.409a24.466,24.466,0,0,0-4.422-.554v5.838c1.3-.4,2.586-1.588,3.655-3.593a14.793,14.793,0,0,0,.765-1.689Zm2.464-1.333a17.542,17.542,0,0,1,3.031,1.292,13.49,13.49,0,0,0,2.639-7.119H24.2a25.87,25.87,0,0,1-.846,5.827Zm.846-7.764h4.824a13.488,13.488,0,0,0-2.639-7.119A17.542,17.542,0,0,1,23.351,8.7,25.949,25.949,0,0,1,24.2,14.528ZM22.764,6.857a17.151,17.151,0,0,0-.934-2.09A12.963,12.963,0,0,0,20.673,2.96,13.592,13.592,0,0,1,25.08,5.906a16.209,16.209,0,0,1-2.318.95Zm-1.879.511a24.659,24.659,0,0,1-4.421.556V2.086c1.3.4,2.586,1.588,3.655,3.593A14.793,14.793,0,0,1,20.884,7.369Z" fill="#eb8341" fill-rule="evenodd"/>
</svg>
