<svg xmlns="http://www.w3.org/2000/svg" width="30.806" height="29" viewBox="0 0 30.806 29">
  <g id="noun-users-1448281" transform="translate(-51.421 0.504)">
    <path id="Path_12843" data-name="Path 12843" d="M73.148,9.028a4.516,4.516,0,1,1,4.516-4.516A4.516,4.516,0,0,1,73.148,9.028Zm0-.9a3.613,3.613,0,1,0-3.613-3.613A3.613,3.613,0,0,0,73.148,8.125ZM60.5,13.545a4.516,4.516,0,1,1,4.516-4.516A4.516,4.516,0,0,1,60.5,13.545Zm0-.9a3.613,3.613,0,1,0-3.613-3.613A3.613,3.613,0,0,0,60.5,12.641Zm8.58,14.9a.452.452,0,0,1-.9,0V25.737a7.677,7.677,0,0,0-15.355,0v1.807a.452.452,0,0,1-.9,0V25.737a8.58,8.58,0,0,1,17.161,0Zm-1.22-11.893A.452.452,0,1,1,67.241,15,8.581,8.581,0,0,1,81.727,21.22v1.808a.452.452,0,0,1-.9,0V21.22a7.678,7.678,0,0,0-12.962-5.568Z" fill="#854cdb" fill-rule="evenodd"/>
    <path id="Path_12843_-_Outline" data-name="Path 12843 - Outline" d="M73.148-.5a5.016,5.016,0,1,1-5.016,5.016A5.022,5.022,0,0,1,73.148-.5Zm0,8.129a3.113,3.113,0,1,0-3.113-3.113A3.116,3.116,0,0,0,73.148,7.625ZM60.5,4.012a5.016,5.016,0,1,1-5.016,5.016A5.022,5.022,0,0,1,60.5,4.012Zm0,8.129a3.113,3.113,0,1,0-3.113-3.113A3.116,3.116,0,0,0,60.5,12.141Zm12.645,0a9.09,9.09,0,0,1,9.08,9.079v1.808a.952.952,0,0,1-1.9,0V21.22a7.178,7.178,0,0,0-12.117-5.206h0a.952.952,0,1,1-1.31-1.381A9.042,9.042,0,0,1,73.147,12.141ZM60.5,16.657a9.09,9.09,0,0,1,9.08,9.08v1.807a.952.952,0,1,1-1.9,0V25.737a7.177,7.177,0,0,0-14.355,0v1.807a.952.952,0,0,1-1.9,0V25.737A9.09,9.09,0,0,1,60.5,16.657Z" fill="#854cdb"/>
  </g>
</svg>
