<svg xmlns="http://www.w3.org/2000/svg" width="33.316" height="27.069" viewBox="0 0 33.316 27.069">
  <g id="briefcase" transform="translate(0 -2.25)">
    <path id="Path_12844" data-name="Path 12844" d="M0,27.118a3.123,3.123,0,0,0,3.123,3.123H30.193a3.123,3.123,0,0,0,3.123-3.123V14.625H31.234V27.118a1.041,1.041,0,0,1-1.041,1.041H3.123a1.041,1.041,0,0,1-1.041-1.041V14.625H0Z" transform="translate(0 -0.923)" fill="#37b172" fill-rule="evenodd"/>
    <path id="Path_12845" data-name="Path 12845" d="M0,9.538A3.123,3.123,0,0,1,3.123,6.414H30.193a3.123,3.123,0,0,1,3.123,3.123V14.5L17.462,18.728a3.123,3.123,0,0,1-1.607,0L0,14.5ZM3.123,8.5A1.041,1.041,0,0,0,2.082,9.538V12.9L16.39,16.717a1.041,1.041,0,0,0,.538,0L31.234,12.9V9.538A1.041,1.041,0,0,0,30.193,8.5Zm7.288-3.123A3.123,3.123,0,0,1,13.535,2.25h6.247A3.123,3.123,0,0,1,22.9,5.373V6.414H20.822V5.373a1.041,1.041,0,0,0-1.041-1.041H13.535a1.041,1.041,0,0,0-1.041,1.041V6.414H10.411Z" fill="#37b172" fill-rule="evenodd"/>
  </g>
</svg>
