<svg xmlns="http://www.w3.org/2000/svg" width="34.634" height="31.556" viewBox="0 0 34.634 31.556">
  <path id="Path_12848" data-name="Path 12848" d="M115.314,50.4a14.023,14.023,0,0,0-8.984,3.2,5.341,5.341,0,0,0-2.946-.89A5.381,5.381,0,0,0,101,62.917a12.252,12.252,0,0,0,1.672,9.152,13.84,13.84,0,0,0,7.408,5.785,5.387,5.387,0,0,0,10.463,0,13.84,13.84,0,0,0,7.408-5.785,12.251,12.251,0,0,0,1.672-9.152,5.381,5.381,0,0,0-2.381-10.21,5.341,5.341,0,0,0-2.946.89,13.984,13.984,0,0,0-8.984-3.2Zm0,2.309a11.743,11.743,0,0,1,7.372,2.538,5.334,5.334,0,0,0-.83,2.85,5.405,5.405,0,0,0,5.388,5.388c.044,0,.088,0,.132,0a9.939,9.939,0,0,1-1.383,7.372,11.514,11.514,0,0,1-5.423,4.534,5.386,5.386,0,0,0-10.511,0,11.514,11.514,0,0,1-5.423-4.534,9.94,9.94,0,0,1-1.383-7.372c.044,0,.088,0,.132,0a5.405,5.405,0,0,0,5.388-5.388,5.334,5.334,0,0,0-.83-2.85,11.794,11.794,0,0,1,7.372-2.538Zm-11.93,2.309a3.079,3.079,0,1,1-3.078,3.078A3.061,3.061,0,0,1,103.385,55.016Zm23.859,0a3.079,3.079,0,1,1-3.079,3.078A3.061,3.061,0,0,1,127.244,55.016Zm-11.93,18.472a3.061,3.061,0,0,1,3.079,3.079v.024a1.152,1.152,0,0,0-.048.553,3.087,3.087,0,0,1-6.061,0,1.153,1.153,0,0,0-.048-.577,3.061,3.061,0,0,1,3.079-3.079Z" transform="translate(-97.997 -50.398)" fill="#585cbc"/>
</svg>
