<svg xmlns="http://www.w3.org/2000/svg" width="67.298" height="62.037" viewBox="0 0 67.298 62.037">
  <g id="noun-strategy-1017023" transform="translate(-84.225 -34.999)">
    <path id="Path_12827" data-name="Path 12827" d="M183.585,328.919l-4.732-24.349-20.772,4.038,4.2,21.62a2.779,2.779,0,0,0,3.258,2.2l4.3-.835a.71.71,0,0,0,.358-1.212,3.525,3.525,0,0,1,1.894-6.081,3.552,3.552,0,0,1,3.928,2.669,3.507,3.507,0,0,1-.244,2.332.71.71,0,0,0,.789.985Z" transform="translate(-64.506 -235.442)" fill="#219268"/>
    <path id="Path_12828" data-name="Path 12828" d="M347.165,62.906l20.772-4.038-4.2-21.62a2.779,2.779,0,0,0-3.258-2.2l-4.3.835a.71.71,0,0,0-.358,1.212,3.525,3.525,0,0,1-1.894,6.081A3.552,3.552,0,0,1,350,40.51a3.507,3.507,0,0,1,.244-2.332.71.71,0,0,0-.789-.985l-4.3.835a2.779,2.779,0,0,0-2.2,3.258Z" transform="translate(-225.933)" fill="#219268"/>
    <path id="Path_12829" data-name="Path 12829" d="M107.492,83.6a3.507,3.507,0,0,1,2.332.244.71.71,0,0,0,.985-.789l-.835-4.3a2.779,2.779,0,0,0-3.258-2.2l-4.028.783a.709.709,0,0,1-.814-.913A3.527,3.527,0,1,0,95.838,77.6a.71.71,0,0,1-.413,1.151l-4.027.783a2.779,2.779,0,0,0-2.2,3.258l.808,4.154a.712.712,0,0,1-.965.8,3.5,3.5,0,0,0-2.193-.13,3.527,3.527,0,0,0,1.575,6.871,3.5,3.5,0,0,0,1.767-.917.709.709,0,0,1,1.18.389l.808,4.153a2.779,2.779,0,0,0,3.258,2.2l15.317-2.978a2.779,2.779,0,0,0,2.2-3.258l-.835-4.3a.71.71,0,0,0-1.212-.358,3.525,3.525,0,0,1-6.081-1.894,3.546,3.546,0,0,1,2.668-3.925Z" transform="translate(0 -32.133)" fill="#219268"/>
    <path id="Path_12830" data-name="Path 12830" d="M394.243,281.2a3.508,3.508,0,0,1-2.328-.273.71.71,0,0,0-1,.775l.78,4.306a2.779,2.779,0,0,0,3.229,2.239l4.037-.731a.71.71,0,0,1,.8.924,3.527,3.527,0,1,0,6.048-1.1.71.71,0,0,1,.428-1.145l4.038-.731a2.779,2.779,0,0,0,2.239-3.229l-.754-4.165a.711.711,0,0,1,.975-.782,3.5,3.5,0,0,0,2.192.157,3.527,3.527,0,0,0-1.487-6.892,3.5,3.5,0,0,0-1.778.894.709.709,0,0,1-1.174-.4l-.754-4.163a2.779,2.779,0,0,0-3.229-2.239l-15.353,2.78a2.779,2.779,0,0,0-2.239,3.229l.78,4.307a.711.711,0,0,0,1.208.373,3.526,3.526,0,0,1,6.056,1.972,3.556,3.556,0,0,1-2.721,3.893Z" transform="translate(-266.081 -200.531)" fill="#219268"/>
  </g>
</svg>
