<svg xmlns="http://www.w3.org/2000/svg" width="24.113" height="28.885" viewBox="0 0 24.113 28.885">
  <g id="noun-building-1192317" transform="translate(-126 -11.67)">
    <path id="Path_12831" data-name="Path 12831" d="M168.852,40.555H147V11.67h21.727V40.555Zm-19.34-2.386h16.954V14.056H149.512Z" transform="translate(-19.87)" fill="#4f9aff"/>
    <path id="Path_12832" data-name="Path 12832" d="M126,504h24.113v2.386H126Z" transform="translate(0 -465.831)" fill="#4f9aff"/>
    <path id="Path_12833" data-name="Path 12833" d="M270.875,400.414H261.33V392H271v8.414Zm-7.158-2.386h4.772v-3.642h-4.772Z" transform="translate(-128.046 -359.859)" fill="#4f9aff"/>
    <path id="Path_12834" data-name="Path 12834" d="M238,100.33h2.386v2.386H238Z" transform="translate(-105.972 -83.888)" fill="#4f9aff"/>
    <path id="Path_12835" data-name="Path 12835" d="M326.67,100.33h2.386v2.386H326.67Z" transform="translate(-189.869 -83.888)" fill="#4f9aff"/>
    <path id="Path_12836" data-name="Path 12836" d="M417.67,100.33h2.386v2.386H417.67Z" transform="translate(-275.971 -83.888)" fill="#4f9aff"/>
    <path id="Path_12837" data-name="Path 12837" d="M238,191.33h2.386v2.386H238Z" transform="translate(-105.972 -169.99)" fill="#4f9aff"/>
    <path id="Path_12838" data-name="Path 12838" d="M326.67,191.33h2.386v2.386H326.67Z" transform="translate(-189.869 -169.99)" fill="#4f9aff"/>
    <path id="Path_12839" data-name="Path 12839" d="M417.67,191.33h2.386v2.386H417.67Z" transform="translate(-275.971 -169.99)" fill="#4f9aff"/>
    <path id="Path_12840" data-name="Path 12840" d="M238,280h2.386v2.386H238Z" transform="translate(-105.972 -253.888)" fill="#4f9aff"/>
    <path id="Path_12841" data-name="Path 12841" d="M326.67,280h2.386v2.386H326.67Z" transform="translate(-189.869 -253.888)" fill="#4f9aff"/>
    <path id="Path_12842" data-name="Path 12842" d="M417.67,280h2.386v2.386H417.67Z" transform="translate(-275.971 -253.888)" fill="#4f9aff"/>
  </g>
</svg>
