<svg xmlns="http://www.w3.org/2000/svg" xmlns:xlink="http://www.w3.org/1999/xlink" width="108.183" height="62.797" viewBox="0 0 108.183 62.797">
  <defs>
    <linearGradient id="linear-gradient" x1="0.481" y1="0.565" x2="0.343" y2="1.545" gradientUnits="objectBoundingBox">
      <stop offset="0" stop-color="#888ceb"/>
      <stop offset="0.5" stop-color="#c173e7"/>
      <stop offset="1" stop-color="#d662a0"/>
    </linearGradient>
    <linearGradient id="linear-gradient-2" x1="0.573" y1="0.026" x2="0.455" y2="1.113" xlink:href="#linear-gradient"/>
    <linearGradient id="linear-gradient-3" x1="6.075" y1="19.884" x2="6.075" y2="20.488" xlink:href="#linear-gradient"/>
  </defs>
  <g id="Layer_2" data-name="Layer 2" transform="translate(0.015 -2.503)">
    <g id="Layer_1" data-name="Layer 1" transform="translate(-0.015 2.503)">
      <path id="Path_10497" data-name="Path 10497" d="M92.447,36.872a.41.41,0,0,0-.6-.27h0q-3.606,1.906-7.573,3.976a.4.4,0,0,0-.215.451,22.012,22.012,0,0,1-37.2,18.478.429.429,0,0,0-.468-.073l-1.749.822-5.987,2.819a.4.4,0,0,0-.14.633A31,31,0,0,0,92.593,37.574Z" transform="translate(-6.854 -11.903)" fill="url(#linear-gradient)"/>
      <path id="Path_10498" data-name="Path 10498" d="M108.154,10.657c-.41-.822-10.5,3.284-25.418,10.134a2.505,2.505,0,0,1-3.1-.822A31.012,31.012,0,0,0,23.693,43.658a31.67,31.67,0,0,0,.945,3.572,2.522,2.522,0,0,1-1.191,3.022C8.941,57.989-.412,63.591,0,64.407s10.587-3.284,25.616-10.218l1.782-.822q3.9-1.816,8.213-3.851c6.127-2.915,12.764-6.135,19.67-9.576s13.494-6.768,19.515-9.855q4.2-2.185,8.016-4.205v-.041l.674-.311C98.677,17.385,108.59,11.512,108.154,10.657ZM52.9,35.129c-5.88,2.915-11.5,5.749-16.787,8.484a2.464,2.464,0,0,1-3.6-1.7h0a22.018,22.018,0,0,1,38.109-18.89,2.464,2.464,0,0,1-.822,3.9c-5.339,2.509-11.023,5.285-16.9,8.211Z" transform="translate(0.015 -6.545)" fill="url(#linear-gradient-2)"/>
      <path id="Path_10499" data-name="Path 10499" d="M101.477,28.58l-.657.354v-.041Z" transform="translate(-18.005 -10.48)" fill="url(#linear-gradient-3)"/>
      <path id="Path_10500" data-name="Path 10500" d="M101.477,28.58l-.657.354v-.041Z" transform="translate(-18.005 -10.48)" fill="url(#linear-gradient-3)"/>
    </g>
  </g>
</svg>
