<svg xmlns="http://www.w3.org/2000/svg" width="26.9" height="30.513" viewBox="0 0 26.9 30.513">
  <g id="noun-case-study-4631040" transform="translate(-115.498 -13.998)">
    <path id="Path_12811" data-name="Path 12811" d="M210.8,169.026h14.453a.8.8,0,0,0,0-1.606H210.8a.8.8,0,1,0,0,1.606Z" transform="translate(-89.082 -144.623)" fill="#ce6a6a"/>
    <path id="Path_12812" data-name="Path 12812" d="M210.8,232.306h14.453a.8.8,0,0,0,0-1.606H210.8a.8.8,0,1,0,0,1.606Z" transform="translate(-89.082 -204.273)" fill="#ce6a6a"/>
    <path id="Path_12813" data-name="Path 12813" d="M213.494,293.98H210.8a.8.8,0,1,0,0,1.606h2.695a.8.8,0,1,0,0-1.606Z" transform="translate(-89.078 -263.924)" fill="#ce6a6a"/>
    <path id="Path_12814" data-name="Path 12814" d="M142.4,20.655a.8.8,0,0,0-.065-.316l0-.006a.8.8,0,0,0-.073-.132c-.008-.012-.018-.022-.027-.033a.788.788,0,0,0-.076-.088l-.006-.007-6.174-5.855c-.018-.017-.04-.031-.059-.047s-.034-.029-.053-.041-.049-.027-.073-.04-.041-.023-.063-.032a.879.879,0,0,0-.084-.026c-.021-.006-.041-.014-.063-.019a.847.847,0,0,0-.157-.015H119.914a4.421,4.421,0,0,0-4.416,4.416v21.68a4.421,4.421,0,0,0,4.416,4.416h18.067a4.421,4.421,0,0,0,4.416-4.416Zm-6.174-3.986,3.356,3.183H137.1a.881.881,0,0,1-.88-.88ZM137.981,42.9H119.914a2.813,2.813,0,0,1-2.81-2.81V18.414a2.813,2.813,0,0,1,2.81-2.81h14.7v3.368a2.489,2.489,0,0,0,2.486,2.486h3.687V40.094a2.813,2.813,0,0,1-2.81,2.81Z" fill="#ce6a6a"/>
    <path id="Path_12815" data-name="Path 12815" d="M332.718,290.4a4.451,4.451,0,1,0-1.135,1.137l2.963,2.963a.8.8,0,1,0,1.136-1.135Zm-5.678-.513a2.849,2.849,0,1,1,2.014.834A2.853,2.853,0,0,1,327.04,289.882Z" transform="translate(-197.11 -253.962)" fill="#ce6a6a"/>
  </g>
</svg>
