<svg xmlns="http://www.w3.org/2000/svg" width="38.684" height="33.702" viewBox="0 0 38.684 33.702">
  <g id="noun-campaign-4289277" transform="translate(-91.609 -55.078)">
    <path id="Path_12816" data-name="Path 12816" d="M118.621,69.108V60.593a1.886,1.886,0,0,0-1.88-1.887h-1.133a.654.654,0,0,0-.216.046h-.1L100.8,67.012H96.771a2.069,2.069,0,0,0-2.03,1.709h-.956A2.174,2.174,0,0,0,91.609,70.9v2.8a2.181,2.181,0,0,0,2.175,2.181h.956A2.064,2.064,0,0,0,96.168,77.5V89.943a2.2,2.2,0,0,0,2.194,2.194h.216a2.2,2.2,0,0,0,2.194-2.194V77.891l14.521,8.286h.1a.662.662,0,0,0,.223.046h1.127a1.886,1.886,0,0,0,1.88-1.886V75.272a3.091,3.091,0,0,0,0-6.176Zm-25.7,4.585V70.9a.865.865,0,0,1,.865-.871H94.7v4.533h-.917a.871.871,0,0,1-.865-.865Zm3.092,1.526V69.076a.76.76,0,0,1,.76-.76H100.1v7.971H96.771a.76.76,0,0,1-.76-.76ZM99.463,89.93a.891.891,0,0,1-.884.884h-.216a.891.891,0,0,1-.884-.884V77.6h1.965Zm1.965-21.759,13.532-7.7V84.479l-13.552-7.709Zm15.883,16.2a.576.576,0,0,1-.57.576h-.472V60h.472a.57.57,0,0,1,.57.576Zm1.31-10.394V70.405a1.795,1.795,0,0,1,0,3.576Z" transform="translate(0 -3.357)" fill="#4f9aff"/>
    <path id="Path_12817" data-name="Path 12817" d="M494.1,62.706a.656.656,0,0,0,.465-.19L500.9,56.2a.655.655,0,1,0-.93-.923l-6.334,6.334h0a.655.655,0,0,0,.458,1.12Z" transform="translate(-371.756)" fill="#4f9aff"/>
    <path id="Path_12818" data-name="Path 12818" d="M494.135,346.382a.655.655,0,1,0-.923.924l6.209,6.216h0a.658.658,0,1,0,.93-.93Z" transform="translate(-371.329 -269.286)" fill="#4f9aff"/>
    <path id="Path_12819" data-name="Path 12819" d="M535.526,235.29h-4.533a.655.655,0,0,0,0,1.31h4.533a.655.655,0,1,0,0-1.31Z" transform="translate(-405.888 -166.722)" fill="#4f9aff"/>
  </g>
</svg>
