<svg xmlns="http://www.w3.org/2000/svg" width="30.55" height="30.55" viewBox="0 0 30.55 30.55">
  <g id="text-shapes" transform="translate(-1.125 -1.125)">
    <path id="Path_12821" data-name="Path 12821" d="M24.547,3.671H8.253V1.125H1.125V8.253H3.671V24.547H1.125v7.128H8.253V29.129H24.547v2.546h7.128V24.547H29.129V8.253h2.546V1.125H24.547ZM3.162,6.217V3.162H6.217V6.217ZM6.217,29.638H3.162V26.583H6.217Zm18.33-2.546H8.253V24.546H5.708V8.253H8.254V5.708H24.547V8.254h2.546V24.547H24.547Zm5.092-.51v3.055H26.583V26.582ZM26.583,3.162h3.055V6.217H26.583Z" transform="translate(0 0)" fill="#eb8341"/>
  </g>
</svg>
