<svg xmlns="http://www.w3.org/2000/svg" width="29.086" height="29.086" viewBox="0 0 29.086 29.086">
  <g id="grid" transform="translate(-2.25 -2.25)">
    <path id="Path_12801" data-name="Path 12801" d="M2.25,5.366A3.116,3.116,0,0,1,5.366,2.25H11.6a3.116,3.116,0,0,1,3.116,3.116V11.6A3.116,3.116,0,0,1,11.6,14.715H5.366A3.116,3.116,0,0,1,2.25,11.6ZM5.366,4.328A1.039,1.039,0,0,0,4.328,5.366V11.6a1.039,1.039,0,0,0,1.039,1.039H11.6A1.039,1.039,0,0,0,12.638,11.6V5.366A1.039,1.039,0,0,0,11.6,4.328Zm13.5,1.039A3.116,3.116,0,0,1,21.987,2.25H28.22a3.116,3.116,0,0,1,3.116,3.116V11.6a3.116,3.116,0,0,1-3.116,3.116H21.987A3.116,3.116,0,0,1,18.871,11.6Zm3.116-1.039a1.039,1.039,0,0,0-1.039,1.039V11.6a1.039,1.039,0,0,0,1.039,1.039H28.22A1.039,1.039,0,0,0,29.258,11.6V5.366A1.039,1.039,0,0,0,28.22,4.328ZM2.25,21.987a3.116,3.116,0,0,1,3.116-3.116H11.6a3.116,3.116,0,0,1,3.116,3.116V28.22A3.116,3.116,0,0,1,11.6,31.336H5.366A3.116,3.116,0,0,1,2.25,28.22Zm3.116-1.039a1.039,1.039,0,0,0-1.039,1.039V28.22a1.039,1.039,0,0,0,1.039,1.039H11.6a1.039,1.039,0,0,0,1.039-1.039V21.987A1.039,1.039,0,0,0,11.6,20.948Zm13.5,1.039a3.116,3.116,0,0,1,3.116-3.116H28.22a3.116,3.116,0,0,1,3.116,3.116V28.22a3.116,3.116,0,0,1-3.116,3.116H21.987a3.116,3.116,0,0,1-3.116-3.116Zm3.116-1.039a1.039,1.039,0,0,0-1.039,1.039V28.22a1.039,1.039,0,0,0,1.039,1.039H28.22a1.039,1.039,0,0,0,1.039-1.039V21.987a1.039,1.039,0,0,0-1.039-1.039Z" transform="translate(0)" fill="#c173e7" fill-rule="evenodd"/>
  </g>
</svg>
