<svg xmlns="http://www.w3.org/2000/svg" width="30.074" height="30.074" viewBox="0 0 30.074 30.074">
  <g id="noun-design-2890153" transform="translate(-87.502 -17.5)">
    <path id="Path_12822" data-name="Path 12822" d="M131.879,210.038h23.809a.627.627,0,0,0,.627-.627V193.121a.627.627,0,0,0-.627-.627H131.879a.627.627,0,0,0-.627.627v16.291A.627.627,0,0,0,131.879,210.038Zm23.182-1.253H132.505v-3.759h22.556Zm0-5.012H144.41V193.747h10.651Zm-22.556-10.025h10.651v10.025H132.505Z" transform="translate(-41.244 -164.97)" fill="#5c167e"/>
    <path id="Path_12823" data-name="Path 12823" d="M116.95,17.5H88.129a.627.627,0,0,0-.627.627V46.948a.627.627,0,0,0,.627.627H116.95a.627.627,0,0,0,.627-.627V18.127A.627.627,0,0,0,116.95,17.5ZM88.755,18.753h27.568v6.266H88.755Zm27.568,27.568H88.755V26.272h27.568Z" fill="#5c167e"/>
    <path id="Path_12824" data-name="Path 12824" d="M164.06,83.125h1.253v1.253H164.06Z" transform="translate(-72.172 -61.866)" fill="#5c167e"/>
    <path id="Path_12825" data-name="Path 12825" d="M514.06,83.125h1.253v1.253H514.06Z" transform="translate(-402.123 -61.866)" fill="#5c167e"/>
    <path id="Path_12826" data-name="Path 12826" d="M207.81,83.125h1.253v1.253H207.81Z" transform="translate(-113.416 -61.866)" fill="#5c167e"/>
  </g>
</svg>
