<svg xmlns="http://www.w3.org/2000/svg" width="33.629" height="33.631" viewBox="0 0 33.629 33.631">
  <g id="megaphone-outline" transform="translate(-2.25 -2.249)">
    <path id="Path_12785" data-name="Path 12785" d="M30.843,2.249h0A2.6,2.6,0,0,1,33.477,4.81V28.646a2.613,2.613,0,0,1-2.67,2.53,2.29,2.29,0,0,1-1.834-.861c-1.656-2.059-6.859-7.367-11.134-7.367H6.083A2.711,2.711,0,0,1,3.375,20.24V13.187a2.711,2.711,0,0,1,2.708-2.708H17.838c4.262,0,9.444-5.249,11.119-7.315l.013-.017A2.356,2.356,0,0,1,30.843,2.249ZM30.413,27.3V6.155a35.169,35.169,0,0,1-3.175,3.066c-3.387,2.868-6.55,4.322-9.4,4.322H6.439v6.34h11.4c2.851,0,6.014,1.46,9.4,4.341A35.23,35.23,0,0,1,30.413,27.3Z" transform="translate(0.051)" fill="#f98715"/>
    <path id="Path_12786" data-name="Path 12786" d="M4.42,20.044a3.85,3.85,0,0,1-2.17-3.786,3.85,3.85,0,0,1,2.17-3.786A1.532,1.532,0,0,1,5.595,15.3c-.053.042-.28.263-.28.958a1.384,1.384,0,0,0,.228.905.325.325,0,0,0,.063.06l-.021-.011L5.554,17.2,5.5,17.175Z" transform="translate(0 0.455)" fill="#f98715"/>
    <path id="Path_12787" data-name="Path 12787" d="M31.906,19.376a1.532,1.532,0,0,1-.45-3,.25.25,0,0,0,.083-.058.4.4,0,0,0,0-.19.251.251,0,0,0-.083-.057,1.532,1.532,0,0,1,.851-2.943,3.23,3.23,0,0,1,0,6.191A1.534,1.534,0,0,1,31.906,19.376Z" transform="translate(1.264 0.487)" fill="#f98715"/>
    <path id="Path_12788" data-name="Path 12788" d="M18.407,22.594a1.532,1.532,0,0,1-1.532-1.532v-9.4a1.532,1.532,0,0,1,3.064,0v9.4A1.532,1.532,0,0,1,18.407,22.594Z" transform="translate(0.657 0.354)" fill="#f98715"/>
    <path id="Path_12789" data-name="Path 12789" d="M8.282,22.594A1.532,1.532,0,0,1,6.75,21.062v-9.4a1.532,1.532,0,0,1,3.064,0v9.4A1.532,1.532,0,0,1,8.282,22.594Z" transform="translate(0.202 0.354)" fill="#f98715"/>
    <path id="Path_12790" data-name="Path 12790" d="M11.12,35.121A2.123,2.123,0,0,1,9,33V20.657a1.532,1.532,0,0,1,3.064,0v11.4h2.452c-.123-.332-.269-.686-.42-1.055a16.688,16.688,0,0,1-1.569-6.819,1.532,1.532,0,0,1,1.532-1.532h.819v-.463h-.819a1.532,1.532,0,0,1,0-3.064h1.176a2.711,2.711,0,0,1,2.708,2.708v1.176a2.712,2.712,0,0,1-2.256,2.67,15.785,15.785,0,0,0,1.243,4.158c.251.609.488,1.185.671,1.773a2.708,2.708,0,0,1-2.585,3.512H11.12Z" transform="translate(0.303 0.759)" fill="#f98715"/>
  </g>
</svg>
