<svg xmlns="http://www.w3.org/2000/svg" width="28.459" height="41.178" viewBox="0 0 28.459 41.178">
  <path id="Path_12796" data-name="Path 12796" d="M244.767,154.19c-.1-.1-11.212-6.946-12.8-17.959v-.1c0-.1,0-.1-.1-.2,0-.1-.1-.1-.1-.2l-.1-.1c-.1-.1-.1-.1-.2-.1a.1.1,0,0,1-.1-.1c-.1,0-.2-.1-.4-.1a.6.6,0,0,0-.4.1.1.1,0,0,0-.1.1c-.1,0-.1.1-.2.1l-.1.1c0,.1-.1.1-.1.2v.2c-1.588,10.915-12.7,17.861-12.8,17.959a.976.976,0,0,0-.3,1.389l5.457,9.228h-1.588a.937.937,0,0,0-.992.992v4.267a.937.937,0,0,0,.992.992h1.588v4.564a.937.937,0,0,0,.992.992h15.182a.937.937,0,0,0,.992-.992v-4.564h1.588a.937.937,0,0,0,.992-.992V165.7a.937.937,0,0,0-.992-.992h-1.588l5.457-9.228a.821.821,0,0,0-.3-1.29Zm-13.693-.1a1.488,1.488,0,1,1-1.488,1.488A1.461,1.461,0,0,1,231.074,154.091Zm6.549,20.441h-13.2V170.96h13.2Zm2.679-5.557H221.846v-2.282H240.3Zm-2.977-4.267h-12.6l-5.557-9.427c2.084-1.488,7.74-5.755,10.915-12.4v9.327a3.45,3.45,0,1,0,4.466,3.275,3.422,3.422,0,0,0-2.481-3.275v-9.327c3.175,6.549,8.831,10.915,10.915,12.4Z" transform="translate(-216.815 -135.338)" fill="#f34040"/>
</svg>
