<svg xmlns="http://www.w3.org/2000/svg" width="34.98" height="30.788" viewBox="0 0 34.98 30.788">
  <path id="noun-product-3845760" d="M178.3,102.37H153.023a4.853,4.853,0,0,0-4.853,4.853V128.3a4.853,4.853,0,0,0,4.853,4.853H178.3a4.853,4.853,0,0,0,4.853-4.853V107.223a4.853,4.853,0,0,0-4.853-4.853Zm2.912,25.935a2.912,2.912,0,0,1-2.912,2.912H153.023a2.912,2.912,0,0,1-2.912-2.912V107.223a2.912,2.912,0,0,1,2.912-2.912h7.086v10.871h0a.953.953,0,0,0,.582.874.986.986,0,0,0,1.048-.155l3.921-3.591,3.921,3.591a1,1,0,0,0,.66.252,1.037,1.037,0,0,0,.388-.1.953.953,0,0,0,.582-.874V104.311H178.3a2.912,2.912,0,0,1,2.912,2.912ZM158.3,123.7a.971.971,0,0,1-.971.971h-3.688a.971.971,0,1,1,0-1.941h3.688a.97.97,0,0,1,.971.971Zm0,3.923a.971.971,0,0,1-.971.971h-3.688a.971.971,0,0,1,0-1.941h3.688a.971.971,0,0,1,.971.971Z" transform="translate(-148.17 -102.37)" fill="#224dc6"/>
</svg>
