<svg xmlns="http://www.w3.org/2000/svg" width="33.139" height="30.925" viewBox="0 0 33.139 30.925">
  <g id="chat-dots" transform="translate(0 -2.25)">
    <path id="Path_12797" data-name="Path 12797" d="M5.547,24.814a2.071,2.071,0,0,1,.595,1.659,22.721,22.721,0,0,1-.825,4.142,24.45,24.45,0,0,0,5.455-1.849,2.071,2.071,0,0,1,1.47-.153,16.694,16.694,0,0,0,4.327.562c8.276,0,14.5-5.814,14.5-12.427S24.846,4.321,16.569,4.321s-14.5,5.816-14.5,12.427a11.38,11.38,0,0,0,3.476,8.065ZM4.526,32.9q-.736.146-1.477.267a.538.538,0,0,1-.565-.75q.276-.65.505-1.319L3,31.079a21.659,21.659,0,0,0,1.085-4.8A13.451,13.451,0,0,1,0,16.748C0,8.741,7.419,2.25,16.569,2.25s16.569,6.491,16.569,14.5-7.419,14.5-16.569,14.5a18.765,18.765,0,0,1-4.861-.634A28.317,28.317,0,0,1,4.525,32.9Z" transform="translate(0 0)" fill="#8035a0" fill-rule="evenodd"/>
    <path id="Path_12798" data-name="Path 12798" d="M10.892,17.821A2.071,2.071,0,1,1,8.821,15.75,2.071,2.071,0,0,1,10.892,17.821Zm8.285,0a2.071,2.071,0,1,1-2.071-2.071A2.071,2.071,0,0,1,19.177,17.821Zm8.285,0a2.071,2.071,0,1,1-2.071-2.071A2.071,2.071,0,0,1,27.462,17.821Z" transform="translate(-0.536 -1.073)" fill="#8035a0"/>
  </g>
</svg>
