<svg xmlns="http://www.w3.org/2000/svg" width="34.051" height="34.05" viewBox="0 0 34.051 34.05">
  <path id="sketch" d="M25.076,17.019l8.683-8.693a1,1,0,0,0,0-1.412L27.106.3A1,1,0,0,0,25.7.3L17.026,8.968,9.764,1.707a1,1,0,0,0-.533-.277L1.17.019A1,1,0,0,0,.016,1.174l1.412,8.06a1,1,0,0,0,.278.534L8.97,17.024.293,25.7a1,1,0,0,0,0,1.411l6.649,6.649a1,1,0,0,0,.705.292h0a1,1,0,0,0,.705-.293l8.677-8.687,8.7,8.688a1,1,0,0,0,.705.292h0a1,1,0,0,0,.706-.294l6.618-6.651a1,1,0,0,0,0-1.409ZM20.482,8.334,22.6,10.45a1,1,0,1,0,1.411-1.411L21.893,6.923l1.914-1.914,2.116,2.116a1,1,0,1,0,1.411-1.411L25.218,3.6,26.4,2.412l5.237,5.211-7.976,7.985-5.229-5.229ZM7,3.064,3.061,7l-.835-4.77Zm.651,28.581L2.409,26.407l1.185-1.185L5.71,27.338a1,1,0,0,0,1.411-1.411L5,23.811,6.919,21.9l2.116,2.116A1,1,0,0,0,10.446,22.6L8.33,20.486l2.052-2.052,5.237,5.23Zm18.784,0L3.821,9.061,5.734,7.148,28.326,29.741Zm3.3-3.318L7.145,5.738,9.059,3.823,31.643,26.407Z" transform="translate(-0.001 -0.004)" fill="#e28990"/>
</svg>
