<svg xmlns="http://www.w3.org/2000/svg" width="39.449" height="25.36" viewBox="0 0 39.449 25.36">
  <g id="video-camera" transform="translate(0 6)">
    <g id="Group_12340" data-name="Group 12340" transform="translate(0 -6)">
      <g id="Group_12339" data-name="Group 12339">
        <path id="Path_2153" data-name="Path 2153" d="M38.781,88.361A1.409,1.409,0,0,0,37.41,88.3l-9.232,4.617V89.56a4.227,4.227,0,0,0-4.227-4.227H4.227A4.227,4.227,0,0,0,0,89.56v16.907a4.227,4.227,0,0,0,4.227,4.227H23.951a4.227,4.227,0,0,0,4.227-4.227V103.11l9.232,4.624a1.409,1.409,0,0,0,2.039-1.268V89.56A1.409,1.409,0,0,0,38.781,88.361ZM25.36,106.466a1.409,1.409,0,0,1-1.409,1.409H4.227a1.409,1.409,0,0,1-1.409-1.409V89.56a1.409,1.409,0,0,1,1.409-1.409H23.951A1.409,1.409,0,0,1,25.36,89.56v16.907Zm11.271-2.28L28.178,99.96V96.066l8.453-4.227Z" transform="translate(0 -85.333)" fill="#6a67c5"/>
      </g>
    </g>
    <g id="Group_12342" data-name="Group 12342" transform="translate(8.453 1.044)">
      <g id="Group_12341" data-name="Group 12341" transform="translate(0 0)">
        <path id="Path_2154" data-name="Path 2154" d="M108.036,170.667a5.636,5.636,0,1,0,5.636,5.636A5.636,5.636,0,0,0,108.036,170.667Zm0,8.453a2.818,2.818,0,1,1,2.818-2.818A2.818,2.818,0,0,1,108.036,179.12Z" transform="translate(-102.4 -170.667)" fill="#6a67c5"/>
      </g>
    </g>
  </g>
</svg>
