<svg id="controller" xmlns="http://www.w3.org/2000/svg" width="35.961" height="35.961" viewBox="0 0 35.961 35.961">
  <g id="Group_12452" data-name="Group 12452" transform="translate(4.691 14.463)">
    <g id="Group_12451" data-name="Group 12451">
      <path id="Path_2478" data-name="Path 2478" d="M69.613,209.433l1.516-1.516a1.173,1.173,0,0,0-1.658-1.658L67.125,208.6a1.173,1.173,0,0,0,0,1.658l2.345,2.345a1.173,1.173,0,0,0,1.658-1.658Z" transform="translate(-66.782 -205.915)" fill="#64bc64"/>
    </g>
  </g>
  <g id="Group_12454" data-name="Group 12454" transform="translate(26.58 14.463)">
    <g id="Group_12453" data-name="Group 12453">
      <path id="Path_2479" data-name="Path 2479" d="M382.782,208.6l-2.345-2.345a1.173,1.173,0,1,0-1.658,1.658l1.516,1.516-1.516,1.516a1.173,1.173,0,1,0,1.658,1.658l2.345-2.345A1.173,1.173,0,0,0,382.782,208.6Z" transform="translate(-378.435 -205.915)" fill="#64bc64"/>
    </g>
  </g>
  <g id="Group_12456" data-name="Group 12456" transform="translate(0 0)">
    <g id="Group_12455" data-name="Group 12455">
      <path id="Path_2480" data-name="Path 2480" d="M32.443,9.772H26.189V3.518A3.522,3.522,0,0,0,22.671,0H13.29A3.522,3.522,0,0,0,9.772,3.518V9.772H3.518A3.522,3.522,0,0,0,0,13.29v9.381a3.522,3.522,0,0,0,3.518,3.518H9.772v6.254a3.522,3.522,0,0,0,3.518,3.518h9.381a3.522,3.522,0,0,0,3.518-3.518V26.189h6.254a3.522,3.522,0,0,0,3.518-3.518V13.29A3.522,3.522,0,0,0,32.443,9.772Zm1.173,12.9a1.174,1.174,0,0,1-1.173,1.173H25.016a1.173,1.173,0,0,0-1.173,1.173v7.427a1.174,1.174,0,0,1-1.173,1.173H13.29a1.174,1.174,0,0,1-1.173-1.173V25.016a1.173,1.173,0,0,0-1.173-1.173H3.518a1.174,1.174,0,0,1-1.173-1.173V13.29a1.174,1.174,0,0,1,1.173-1.173h7.427a1.173,1.173,0,0,0,1.173-1.173V3.518A1.174,1.174,0,0,1,13.29,2.345h9.381a1.174,1.174,0,0,1,1.173,1.173v7.427a1.173,1.173,0,0,0,1.173,1.173h7.427a1.174,1.174,0,0,1,1.173,1.173v9.381Z" transform="translate(0 0)" fill="#64bc64"/>
    </g>
  </g>
  <g id="Group_12458" data-name="Group 12458" transform="translate(14.463 26.971)">
    <g id="Group_12457" data-name="Group 12457">
      <path id="Path_2481" data-name="Path 2481" d="M212.605,384.344a1.173,1.173,0,0,0-1.658,0l-1.516,1.516-1.516-1.516A1.173,1.173,0,0,0,206.256,386l2.345,2.345a1.173,1.173,0,0,0,1.658,0L212.605,386A1.173,1.173,0,0,0,212.605,384.344Z" transform="translate(-205.913 -384.001)" fill="#64bc64"/>
    </g>
  </g>
  <g id="Group_12460" data-name="Group 12460" transform="translate(14.463 4.691)">
    <g id="Group_12459" data-name="Group 12459">
      <path id="Path_2482" data-name="Path 2482" d="M212.605,69.472l-2.345-2.345a1.173,1.173,0,0,0-1.658,0l-2.345,2.345a1.173,1.173,0,0,0,1.658,1.658l1.516-1.516,1.516,1.516a1.173,1.173,0,0,0,1.658-1.658Z" transform="translate(-205.913 -66.784)" fill="#64bc64"/>
    </g>
  </g>
  <g id="Group_12462" data-name="Group 12462" transform="translate(14.463 14.463)">
    <g id="Group_12461" data-name="Group 12461">
      <path id="Path_2483" data-name="Path 2483" d="M209.431,205.913a3.518,3.518,0,1,0,3.518,3.518A3.522,3.522,0,0,0,209.431,205.913Zm0,4.691a1.173,1.173,0,1,1,1.173-1.173A1.174,1.174,0,0,1,209.431,210.6Z" transform="translate(-205.913 -205.913)" fill="#64bc64"/>
    </g>
  </g>
</svg>
