<svg xmlns="http://www.w3.org/2000/svg" width="39.256" height="31.435" viewBox="0 0 39.256 31.435">
  <g id="acceleration" opacity="0.81">
    <path id="Path_2139" data-name="Path 2139" d="M39.256,91.183v-.015a1.692,1.692,0,0,0-.564-1.244l-3.873-3.458a1.15,1.15,0,1,0-1.532,1.716l2.074,1.851H15.6a7.856,7.856,0,1,0,0,2.3H35.361l-2.074,1.852A1.15,1.15,0,1,0,34.819,95.9l3.873-3.458a1.691,1.691,0,0,0,.564-1.244v-.015h0ZM7.841,96.739a5.555,5.555,0,1,1,5.421-6.705H9.57a1.15,1.15,0,1,0,0,2.3h3.692a5.554,5.554,0,0,1-5.421,4.405Zm0,0" transform="translate(0 -76.939)" fill="#a01851"/>
    <path id="Path_2140" data-name="Path 2140" d="M300.938,51.142a1.15,1.15,0,0,0,1.15,1.15H314.6a1.15,1.15,0,1,0,0-2.3H302.088A1.15,1.15,0,0,0,300.938,51.142Zm0,0" transform="translate(-277.865 -46.159)" fill="#a01851"/>
    <path id="Path_2141" data-name="Path 2141" d="M193.513,2.3h9.7a1.15,1.15,0,1,0,0-2.3h-9.7a1.15,1.15,0,1,0,0,2.3Zm0,0" transform="translate(-177.614)" fill="#a01851"/>
    <path id="Path_2142" data-name="Path 2142" d="M369.752,2.3h1.794a1.15,1.15,0,0,0,0-2.3h-1.794a1.15,1.15,0,1,0,0,2.3Zm0,0" transform="translate(-340.341)" fill="#a01851"/>
    <path id="Path_2143" data-name="Path 2143" d="M200.466,78.984a1.15,1.15,0,0,0,0,2.3h1.794a1.15,1.15,0,0,0,0-2.3Zm0,0" transform="translate(-184.034 -72.929)" fill="#a01851"/>
    <path id="Path_2144" data-name="Path 2144" d="M222.3,231.261a1.15,1.15,0,1,0,0-2.3H220.5a1.15,1.15,0,1,0,0,2.3Zm0,0" transform="translate(-202.534 -211.406)" fill="#a01851"/>
    <path id="Path_2145" data-name="Path 2145" d="M93.531,351H81.045a1.15,1.15,0,1,0,0,2.3H93.531a1.15,1.15,0,1,0,0-2.3Zm0,0" transform="translate(-73.769 -324.092)" fill="#a01851"/>
    <path id="Path_2146" data-name="Path 2146" d="M235.986,301.012h-9.7a1.15,1.15,0,1,0,0,2.3h9.7a1.15,1.15,0,1,0,0-2.3Zm0,0" transform="translate(-207.874 -277.933)" fill="#a01851"/>
    <path id="Path_2147" data-name="Path 2147" d="M154.96,303.312a1.15,1.15,0,1,0,0-2.3h-1.794a1.15,1.15,0,1,0,0,2.3Zm0,0" transform="translate(-140.36 -277.933)" fill="#a01851"/>
    <path id="Path_2148" data-name="Path 2148" d="M324.245,380h-1.794a1.15,1.15,0,1,0,0,2.3h1.794a1.15,1.15,0,0,0,0-2.3Zm0,0" transform="translate(-296.666 -350.865)" fill="#a01851"/>
  </g>
</svg>
